<svg xmlns="http://www.w3.org/2000/svg" width="341" height="149" viewBox="0 0 341 149" fill="none">
  <path d="M 116.309 123.079 C 112.414 125.021 107.16 122.595 104.208 118.145 C 95.191 104.568 94.459 48.777 97.342 35.597 C 98.884 28.548 101.2 24.953 106.446 25.158 C 111.004 25.332 113.146 29.302 113.018 33.551 C 112.368 54.826 108.849 97.149 117.293 111.877 C 121.019 118.374 119.311 121.581 116.309 123.079 Z" fill="currentColor" fill-rule="nonzero"></path>
  <path d="M 195.962 90.451 C 177.123 89.487 173.072 60.879 173.919 44.392 C 174.327 36.456 175.247 18.507 185.279 19.018 C 188.95 19.206 191.005 22.129 191.769 26.328 C 192.076 29.896 190.639 48.307 191.531 59.618 C 193.765 82.995 204.576 73.141 218.119 57.796 C 229.182 45.383 240.011 27.941 245.283 23.189 C 247.21 21.453 249.599 20.348 252.167 20.48 C 257.179 20.736 260.973 25.707 260.689 31.202 C 260.195 40.847 220.128 111.763 218.773 138.137 C 218.558 142.285 215.217 145.301 211.789 145.127 C 193.559 144.195 211.652 90.515 214.778 82.109 C 208.919 86.34 203.29 90.826 195.953 90.451 L 195.962 90.451 Z" fill="currentColor" fill-rule="nonzero"></path>
  <path d="M 302.688 122.81 C 306.532 124.244 311.05 129.462 309.622 134.464 C 308.336 138.964 304.006 142.075 299.566 141.97 C 298.811 141.952 298.051 141.842 297.3 141.627 C 292.028 140.124 289.314 134.656 290.897 129.128 C 292.17 124.674 296.051 122.321 300.106 122.417 C 301.195 122.444 301.987 122.549 302.683 122.81 L 302.688 122.81 Z M 300.17 119.84 C 294.577 119.708 289.803 123.057 288.279 128.383 C 287.323 131.728 287.616 135.186 289.099 138.119 C 290.627 141.134 293.277 143.309 296.554 144.245 C 297.506 144.519 298.5 144.665 299.502 144.693 C 305.274 144.83 310.629 140.842 312.24 135.218 C 313.137 132.084 312.679 128.781 310.954 125.921 C 309.278 123.143 306.61 121.11 303.438 120.206 C 302.683 119.991 301.534 119.881 300.17 119.849 L 300.17 119.84 Z" fill="currentColor" fill-rule="nonzero"></path>
  <path d="M 331.568 48.444 C 332.012 48.444 332.447 48.508 332.895 48.631 C 336.955 49.787 337.701 51.998 337.894 53.798 C 338.136 56.055 337.459 58.842 336.731 61.45 L 336.383 62.67 C 333.756 71.857 328.991 80.889 324.382 89.615 L 324.359 89.656 L 324.346 89.688 C 321.087 95.86 317.718 102.238 315.105 108.675 C 314.482 110.246 312.967 112.878 309.841 112.878 C 309.796 112.878 309.754 112.878 309.709 112.878 C 309.173 112.864 308.61 112.777 308.033 112.613 C 307.173 112.366 304.546 111.622 304.454 105.349 C 304.39 101.073 305.585 96.413 306.102 94.609 C 307.507 89.702 311.32 77.125 316.363 66.334 C 323.641 50.765 329.014 48.444 331.568 48.444 Z M 331.568 45.397 C 325.737 45.397 319.7 51.984 313.594 65.046 C 308.454 76.042 304.592 88.797 303.168 93.768 C 301.887 98.24 298.394 113.033 307.196 115.541 C 308.033 115.779 308.848 115.902 309.64 115.921 C 309.709 115.921 309.777 115.921 309.846 115.921 C 313.402 115.921 316.386 113.723 317.947 109.794 C 320.501 103.508 323.838 97.185 327.064 91.073 C 331.751 82.191 336.603 73.009 339.322 63.497 C 340.241 60.295 341.276 56.663 340.933 53.46 C 340.507 49.545 338.086 46.927 333.733 45.689 C 333.014 45.484 332.291 45.383 331.568 45.383 L 331.568 45.397 Z" fill="currentColor" fill-rule="nonzero"></path>
  <path d="M 93.163 9.091 C 87.186 -7.863 55.838 3.408 45.439 7.067 C 32.5 11.608 -6.349 30.7 0.892 51.231 C 2.805 56.653 8.59 59.801 13.094 58.22 C 16.907 56.882 18.902 53.328 21.52 50.075 C 23.658 78.23 32.454 112.526 45.357 140.421 C 46.922 143.811 52.003 151.217 58.909 148.357 C 64.113 146.2 64.196 140.545 62.054 136.287 C 55.435 123.148 50.831 101.923 48.268 81.305 C 57.797 76.38 67.917 77.066 75.968 73.47 C 80.998 71.222 83.158 65.567 81.007 60.77 C 75.753 49.052 47.792 62.108 45.952 63.296 C 44.528 51.592 43.329 40.755 42.386 33.025 C 51.705 27.42 59.651 23.148 69.802 19.521 C 81.648 15.281 85.094 18.315 89.396 17.693 C 92.728 17.214 94.468 12.787 93.168 9.095 L 93.163 9.091 Z" fill="currentColor" fill-rule="nonzero"></path>
  <path d="M 284.064 89.026 C 272.814 81.296 258.634 88.962 257 101.822 C 256.538 103.915 256.204 106.354 256.913 108.255 C 260.062 117.241 272.75 114.34 277.537 108.195 C 277.423 108.054 277.436 108.131 277.537 107.994 C 279.267 106.053 280.595 103.325 279.826 100.799 C 279.409 99.319 278.26 97.898 276.759 97.185 C 273.358 95.312 275.418 90.177 279.139 91.1 C 286.188 92.781 290.234 100.639 288.696 107.478 C 288.252 109.849 287.391 111.951 286.247 113.988 C 286.256 114.025 286.128 113.97 286.105 113.979 L 285.95 114.226 C 282.206 120.279 276.21 124.601 269.308 126.487 C 253.828 130.745 240.23 119.288 240.505 103.49 C 240.812 87.23 257.202 73.342 273.207 75.412 C 279.226 76.12 284.828 79.29 288.774 83.626 C 291.602 86.828 287.57 91.36 284.064 89.021 L 284.064 89.026 Z" fill="currentColor" fill-rule="nonzero"></path>
  <path d="M 158.751 68.335 C 149.666 68.906 143.322 73.566 140.526 81.812 C 138.544 87.381 138.342 96.08 143.794 99.492 C 147.789 101.457 153.506 100.429 157.108 97.756 C 161.351 94.604 163.955 87.34 162.495 82.319 C 161.296 78.916 157.612 79.459 154.312 80.547 C 152.375 81.282 150.201 80.282 149.506 78.336 C 148.874 76.572 149.666 74.644 151.291 73.808 C 154.279 72.282 157.525 71.236 161.113 71.519 C 165.067 71.702 169.242 74.516 171.04 78.034 C 172.844 81.278 173.361 84.823 173.338 88.318 C 173.425 98.537 168.07 109.26 158.495 113.897 C 141.523 122.435 124.003 111.896 122.936 93.147 C 122.007 80.378 128.928 66.942 140.686 61.405 C 146.673 58.568 153.717 58.298 159.822 60.171 C 164.312 61.597 163.388 68.134 158.751 68.34 L 158.751 68.335 Z" fill="currentColor" fill-rule="nonzero"></path>
</svg>