<svg xmlns="http://www.w3.org/2000/svg" width="22" height="22" viewBox="0 0 22 22" fill="none">
  <path d="M 12 6 L 10 6 L 10 12 L 12 12 L 12 6 Z" fill="currentColor" fill-rule="nonzero"></path>
  <path d="M 12 14 L 10 14 L 10 16 L 12 16 L 12 14 Z" fill="currentColor" fill-rule="nonzero"></path>
  <path d="M 12 0 L 10 0 L 10 2 L 8 2 L 8 4 L 6 4 L 6 6 L 4 6 L 4 8 L 2 8 L 2 10 L 0 10 L 0 12 L 2 12 L 2 14 L 4 14 L 4 16 L 6 16 L 6 18 L 8 18 L 8 20 L 10 20 L 10 22 L 12 22 L 12 20 L 14 20 L 14 18 L 16 18 L 16 16 L 18 16 L 18 14 L 20 14 L 20 12 L 22 12 L 22 10 L 20 10 L 20 8 L 18 8 L 18 6 L 16 6 L 16 4 L 14 4 L 14 2 L 12 2 L 12 0 Z M 12 2 L 12 4 L 14 4 L 14 6 L 16 6 L 16 8 L 18 8 L 18 10 L 20 10 L 20 12 L 18 12 L 18 14 L 16 14 L 16 16 L 14 16 L 14 18 L 12 18 L 12 20 L 10 20 L 10 18 L 8 18 L 8 16 L 6 16 L 6 14 L 4 14 L 4 12 L 2 12 L 2 10 L 4 10 L 4 8 L 6 8 L 6 6 L 8 6 L 8 4 L 10 4 L 10 2 L 12 2 Z" fill="currentColor" fill-rule="evenodd"></path>
</svg>