<svg xmlns="http://www.w3.org/2000/svg" width="14" height="16" viewBox="0 0 14 16" fill="none">
  <path d="M 6 12 L 4 12 L 4 14 L 6 14 L 6 16 L 8 16 L 8 14 L 10 14 L 10 12 L 8 12 L 8 0 L 6 0 L 6 12 Z" fill="currentColor" fill-rule="nonzero"></path>
  <path d="M 10 12 L 12 12 L 12 10 L 10 10 L 10 12 Z" fill="currentColor" fill-rule="nonzero"></path>
  <path d="M 2 12 L 4 12 L 4 10 L 2 10 L 2 12 Z" fill="currentColor" fill-rule="nonzero"></path>
  <path d="M 12 8 L 12 10 L 14 10 L 14 8 L 12 8 Z" fill="currentColor" fill-rule="nonzero"></path>
  <path d="M 0 10 L 2 10 L 2 8 L 0 8 L 0 10 Z" fill="currentColor" fill-rule="nonzero"></path>
</svg>