<svg xmlns="http://www.w3.org/2000/svg" width="22" height="22" viewBox="0 0 22 22" fill="none">
  <path d="M 10 2 L 8 2 L 8 4 L 10 4 L 10 2 Z" fill="currentColor" fill-rule="nonzero"></path>
  <path d="M 8 4 L 6 4 L 6 6 L 8 6 L 8 4 Z" fill="currentColor" fill-rule="nonzero"></path>
  <path d="M 6 6 L 4 6 L 4 8 L 6 8 L 6 6 Z" fill="currentColor" fill-rule="nonzero"></path>
  <path d="M 4 8 L 2 8 L 2 10 L 4 10 L 4 8 Z" fill="currentColor" fill-rule="nonzero"></path>
  <path d="M 14 8 L 14 0 L 10 0 L 10 2 L 12 2 L 12 10 L 20 10 L 20 12 L 22 12 L 22 8 L 14 8 Z" fill="currentColor" fill-rule="nonzero"></path>
  <path d="M 20 12 L 18 12 L 18 14 L 20 14 L 20 12 Z" fill="currentColor" fill-rule="nonzero"></path>
  <path d="M 18 14 L 16 14 L 16 16 L 18 16 L 18 14 Z" fill="currentColor" fill-rule="nonzero"></path>
  <path d="M 16 16 L 14 16 L 14 18 L 16 18 L 16 16 Z" fill="currentColor" fill-rule="nonzero"></path>
  <path d="M 10 12 L 2 12 L 2 10 L 0 10 L 0 14 L 8 14 L 8 22 L 12 22 L 12 20 L 10 20 L 10 12 Z" fill="currentColor" fill-rule="nonzero"></path>
  <path d="M 14 18 L 12 18 L 12 20 L 14 20 L 14 18 Z" fill="currentColor" fill-rule="nonzero"></path>
</svg>