<svg xmlns="http://www.w3.org/2000/svg" width="22" height="18" viewBox="0 0 22 18" fill="none">
  <path d="M 10 2 L 2 2 L 2 14 L 10 14 L 10 2 L 12 2 L 12 14 L 20 14 L 20 2 L 12 2 L 12 0 L 22 0 L 22 16 L 12 16 L 12 18 L 10 18 L 10 16 L 0 16 L 0 0 L 10 0 L 10 2 Z" fill="currentColor" fill-rule="nonzero"></path>
  <path d="M 16 12 L 14 12 L 14 10 L 16 10 L 16 12 Z" fill="currentColor" fill-rule="nonzero"></path>
  <path d="M 18 9 L 14 9 L 14 7 L 18 7 L 18 9 Z" fill="currentColor" fill-rule="nonzero"></path>
  <path d="M 18 6 L 14 6 L 14 4 L 18 4 L 18 6 Z" fill="currentColor" fill-rule="nonzero"></path>
</svg>