<svg xmlns="http://www.w3.org/2000/svg" width="18" height="22" viewBox="0 0 18 22" fill="none">
  <path d="M 0 16 L 2 16 L 2 18 L 0 18 L 0 16 Z" fill="currentColor" fill-rule="nonzero"></path>
  <path d="M 8 20 L 10 20 L 10 22 L 8 22 L 8 20 Z" fill="currentColor" fill-rule="nonzero"></path>
  <path d="M 12 4 L 10 4 L 10 2 L 12 2 L 12 4 Z" fill="currentColor" fill-rule="nonzero"></path>
  <path d="M 16 6 L 14 6 L 14 4 L 16 4 L 16 6 Z" fill="currentColor" fill-rule="nonzero"></path>
  <path d="M 0 6 L 2 6 L 2 8 L 0 8 L 0 6 Z" fill="currentColor" fill-rule="nonzero"></path>
  <path d="M 2 6 L 4 6 L 4 8 L 2 8 L 2 6 Z" fill="currentColor" fill-rule="nonzero"></path>
  <path d="M 4 8 L 6 8 L 6 10 L 4 10 L 4 8 Z" fill="currentColor" fill-rule="nonzero"></path>
  <path d="M 10 20 L 12 20 L 12 22 L 10 22 L 10 20 Z" fill="currentColor" fill-rule="nonzero"></path>
  <path d="M 8 2 L 6 2 L 6 0 L 8 0 L 8 2 Z" fill="currentColor" fill-rule="nonzero"></path>
  <path d="M 10 2 L 8 2 L 8 0 L 10 0 L 10 2 Z" fill="currentColor" fill-rule="nonzero"></path>
  <path d="M 16 8 L 18 8 L 18 10 L 16 10 L 16 8 Z" fill="currentColor" fill-rule="nonzero"></path>
  <path d="M 16 10 L 18 10 L 18 12 L 16 12 L 16 10 Z" fill="currentColor" fill-rule="nonzero"></path>
  <path d="M 16 6 L 18 6 L 18 8 L 16 8 L 16 6 Z" fill="currentColor" fill-rule="nonzero"></path>
  <path d="M 12 18 L 14 18 L 14 20 L 12 20 L 12 18 Z" fill="currentColor" fill-rule="nonzero"></path>
  <path d="M 6 4 L 4 4 L 4 2 L 6 2 L 6 4 Z" fill="currentColor" fill-rule="nonzero"></path>
  <path d="M 14 18 L 16 18 L 16 20 L 14 20 L 14 18 Z" fill="currentColor" fill-rule="nonzero"></path>
  <path d="M 6 18 L 8 18 L 8 20 L 6 20 L 6 18 Z" fill="currentColor" fill-rule="nonzero"></path>
  <path d="M 4 18 L 6 18 L 6 20 L 4 20 L 4 18 Z" fill="currentColor" fill-rule="nonzero"></path>
  <path d="M 2 16 L 4 16 L 4 18 L 2 18 L 2 16 Z" fill="currentColor" fill-rule="nonzero"></path>
  <path d="M 2 2 L 4 2 L 4 4 L 2 4 L 2 2 Z" fill="currentColor" fill-rule="nonzero"></path>
  <path d="M 0 4 L 2 4 L 2 6 L 0 6 L 0 4 Z" fill="currentColor" fill-rule="nonzero"></path>
  <path d="M 0 14 L 2 14 L 2 16 L 0 16 L 0 14 Z" fill="currentColor" fill-rule="nonzero"></path>
  <path d="M 0 12 L 2 12 L 2 14 L 0 14 L 0 12 Z" fill="currentColor" fill-rule="nonzero"></path>
  <path d="M 0 10 L 2 10 L 2 12 L 0 12 L 0 10 Z" fill="currentColor" fill-rule="nonzero"></path>
  <path d="M 0 8 L 2 8 L 2 10 L 0 10 L 0 8 Z" fill="currentColor" fill-rule="nonzero"></path>
  <path d="M 16 16 L 18 16 L 18 18 L 16 18 L 16 16 Z" fill="currentColor" fill-rule="nonzero"></path>
  <path d="M 16 12 L 18 12 L 18 14 L 16 14 L 16 12 Z" fill="currentColor" fill-rule="nonzero"></path>
  <path d="M 16 14 L 18 14 L 18 16 L 16 16 L 16 14 Z" fill="currentColor" fill-rule="nonzero"></path>
  <path d="M 14 8 L 16 8 L 16 10 L 14 10 L 14 8 Z" fill="currentColor" fill-rule="nonzero"></path>
  <path d="M 6 8 L 8 8 L 8 10 L 6 10 L 6 8 Z" fill="currentColor" fill-rule="nonzero"></path>
  <path d="M 8 12 L 10 12 L 10 14 L 8 14 L 8 12 Z" fill="currentColor" fill-rule="nonzero"></path>
  <path d="M 8 14 L 10 14 L 10 16 L 8 16 L 8 14 Z" fill="currentColor" fill-rule="nonzero"></path>
  <path d="M 8 16 L 10 16 L 10 18 L 8 18 L 8 16 Z" fill="currentColor" fill-rule="nonzero"></path>
  <path d="M 8 18 L 10 18 L 10 20 L 8 20 L 8 18 Z" fill="currentColor" fill-rule="nonzero"></path>
  <path d="M 10 10 L 12 10 L 12 12 L 10 12 L 10 10 Z" fill="currentColor" fill-rule="nonzero"></path>
  <path d="M 12 8 L 14 8 L 14 10 L 12 10 L 12 8 Z" fill="currentColor" fill-rule="nonzero"></path>
  <path d="M 12 2 L 14 2 L 14 4 L 12 4 L 12 2 Z" fill="currentColor" fill-rule="nonzero"></path>
  <path d="M 16 4 L 18 4 L 18 6 L 16 6 L 16 4 Z" fill="currentColor" fill-rule="nonzero"></path>
  <path d="M 8 10 L 10 10 L 10 12 L 8 12 L 8 10 Z" fill="currentColor" fill-rule="nonzero"></path>
</svg>