<svg xmlns="http://www.w3.org/2000/svg" width="18" height="20" viewBox="0 0 18 20" fill="none">
  <path d="M 0 2 L 18 2 L 18 4 L 0 4 L 0 2 Z" fill="currentColor" fill-rule="nonzero"></path>
  <path d="M 0 18 L 8 18 L 8 20 L 0 20 L 0 18 Z" fill="currentColor" fill-rule="nonzero"></path>
  <path d="M 0 2 L 2 2 L 2 20 L 0 20 L 0 2 Z" fill="currentColor" fill-rule="nonzero"></path>
  <path d="M 16 2 L 18 2 L 18 10 L 16 10 L 16 2 Z" fill="currentColor" fill-rule="nonzero"></path>
  <path d="M 0 6 L 18 6 L 18 8 L 0 8 L 0 6 Z" fill="currentColor" fill-rule="nonzero"></path>
  <path d="M 12 0 L 14 0 L 14 4 L 12 4 L 12 0 Z" fill="currentColor" fill-rule="nonzero"></path>
  <path d="M 4 0 L 6 0 L 6 4 L 4 4 L 4 0 Z" fill="currentColor" fill-rule="nonzero"></path>
  <path d="M 10 10 L 14 10 L 14 12 L 10 12 L 10 10 Z" fill="currentColor" fill-rule="nonzero"></path>
  <path d="M 10 16 L 14 16 L 14 18 L 10 18 L 10 16 Z" fill="currentColor" fill-rule="nonzero"></path>
  <path d="M 8 16 L 8 12 L 10 12 L 10 16 L 8 16 Z" fill="currentColor" fill-rule="nonzero"></path>
  <path d="M 14 16 L 14 12 L 16 12 L 16 16 L 14 16 Z" fill="currentColor" fill-rule="nonzero"></path>
  <path d="M 16 18 L 18 18 L 18 20 L 16 20 L 16 18 Z" fill="currentColor" fill-rule="nonzero"></path>
  <path d="M 14 16 L 16 16 L 16 18 L 14 18 L 14 16 Z" fill="currentColor" fill-rule="nonzero"></path>
</svg>