<svg xmlns="http://www.w3.org/2000/svg" width="20" height="12" viewBox="0 0 20 12" fill="none">
  <path d="M 2 12 L 0 12 L 0 10 L 2 10 L 2 12 Z" fill="currentColor" fill-rule="nonzero"></path>
  <path d="M 4 10 L 2 10 L 2 8 L 4 8 L 4 10 Z" fill="currentColor" fill-rule="nonzero"></path>
  <path d="M 12 10 L 10 10 L 10 8 L 12 8 L 12 10 Z" fill="currentColor" fill-rule="nonzero"></path>
  <path d="M 6 8 L 4 8 L 4 6 L 6 6 L 6 8 Z" fill="currentColor" fill-rule="nonzero"></path>
  <path d="M 10 8 L 8 8 L 8 6 L 10 6 L 10 8 Z" fill="currentColor" fill-rule="nonzero"></path>
  <path d="M 14 8 L 12 8 L 12 6 L 14 6 L 14 8 Z" fill="currentColor" fill-rule="nonzero"></path>
  <path d="M 20 0 L 20 8 L 18 8 L 18 4 L 16 4 L 16 2 L 12 2 L 12 0 L 20 0 Z" fill="currentColor" fill-rule="nonzero"></path>
  <path d="M 8 6 L 6 6 L 6 4 L 8 4 L 8 6 Z" fill="currentColor" fill-rule="nonzero"></path>
  <path d="M 16 6 L 14 6 L 14 4 L 16 4 L 16 6 Z" fill="currentColor" fill-rule="nonzero"></path>
</svg>