<svg xmlns="http://www.w3.org/2000/svg" width="24" height="24" viewBox="0 0 24 24" fill="none">
  <path d="M 16 24 L 8 24 L 8 22 L 16 22 L 16 24 Z M 8 22 L 4 22 L 4 20 L 8 20 L 8 22 Z M 20 22 L 16 22 L 16 20 L 20 20 L 20 22 Z M 4 20 L 2 20 L 2 16 L 4 16 L 4 20 Z M 22 20 L 20 20 L 20 16 L 22 16 L 22 20 Z M 11 18 L 9 18 L 9 16 L 11 16 L 11 18 Z M 2 16 L 0 16 L 0 8 L 2 8 L 2 16 Z M 9 16 L 7 16 L 7 14 L 9 14 L 9 16 Z M 13 16 L 11 16 L 11 14 L 13 14 L 13 16 Z M 24 16 L 22 16 L 22 8 L 24 8 L 24 16 Z M 7 14 L 5 14 L 5 12 L 7 12 L 7 14 Z M 15 14 L 13 14 L 13 12 L 15 12 L 15 14 Z M 17 12 L 15 12 L 15 10 L 17 10 L 17 12 Z M 19 10 L 17 10 L 17 8 L 19 8 L 19 10 Z M 4 8 L 2 8 L 2 4 L 4 4 L 4 8 Z M 22 8 L 19 8 L 19 6 L 20 6 L 20 4 L 22 4 L 22 8 Z M 8 4 L 4 4 L 4 2 L 8 2 L 8 4 Z M 20 4 L 16 4 L 16 2 L 20 2 L 20 4 Z M 16 0 L 16 2 L 8 2 L 8 0 L 16 0 Z" fill="currentColor" fill-rule="nonzero"></path>
</svg>