<svg xmlns="http://www.w3.org/2000/svg" width="20" height="20" viewBox="0 0 20 20" fill="none">
  <path d="M 14 20 L 6 20 L 6 18 L 14 18 L 14 20 Z" fill="currentColor" fill-rule="nonzero"></path>
  <path d="M 4 16 L 6 16 L 6 18 L 2 18 L 2 14 L 4 14 L 4 16 Z" fill="currentColor" fill-rule="nonzero"></path>
  <path d="M 18 18 L 14 18 L 14 16 L 16 16 L 16 14 L 18 14 L 18 18 Z" fill="currentColor" fill-rule="nonzero"></path>
  <path d="M 9 15 L 7 15 L 7 13 L 9 13 L 9 15 Z" fill="currentColor" fill-rule="nonzero"></path>
  <path d="M 2 14 L 0 14 L 0 6 L 2 6 L 2 14 Z" fill="currentColor" fill-rule="nonzero"></path>
  <path d="M 20 14 L 18 14 L 18 6 L 20 6 L 20 14 Z" fill="currentColor" fill-rule="nonzero"></path>
  <path d="M 7 13 L 5 13 L 5 11 L 7 11 L 7 13 Z" fill="currentColor" fill-rule="nonzero"></path>
  <path d="M 11 13 L 9 13 L 9 11 L 11 11 L 11 13 Z" fill="currentColor" fill-rule="nonzero"></path>
  <path d="M 13 11 L 11 11 L 11 9 L 13 9 L 13 11 Z" fill="currentColor" fill-rule="nonzero"></path>
  <path d="M 15 9 L 13 9 L 13 7 L 15 7 L 15 9 Z" fill="currentColor" fill-rule="nonzero"></path>
  <path d="M 6 4 L 4 4 L 4 6 L 2 6 L 2 2 L 6 2 L 6 4 Z" fill="currentColor" fill-rule="nonzero"></path>
  <path d="M 18 6 L 16 6 L 16 4 L 14 4 L 14 2 L 18 2 L 18 6 Z" fill="currentColor" fill-rule="nonzero"></path>
  <path d="M 14 0 L 14 2 L 6 2 L 6 0 L 14 0 Z" fill="currentColor" fill-rule="nonzero"></path>
</svg>