<svg xmlns="http://www.w3.org/2000/svg" width="22" height="12" viewBox="0 0 22 12" fill="none">
  <path d="M 12 12 L 10 12 L 10 10 L 12 10 L 12 12 Z" fill="currentColor" fill-rule="nonzero"></path>
  <path d="M 10 10 L 8 10 L 8 8 L 10 8 L 10 10 Z" fill="currentColor" fill-rule="nonzero"></path>
  <path d="M 14 10 L 12 10 L 12 8 L 14 8 L 14 10 Z" fill="currentColor" fill-rule="nonzero"></path>
  <path d="M 8 8 L 6 8 L 6 6 L 8 6 L 8 8 Z" fill="currentColor" fill-rule="nonzero"></path>
  <path d="M 16 8 L 14 8 L 14 6 L 16 6 L 16 8 Z" fill="currentColor" fill-rule="nonzero"></path>
  <path d="M 6 6 L 4 6 L 4 4 L 6 4 L 6 6 Z" fill="currentColor" fill-rule="nonzero"></path>
  <path d="M 18 6 L 16 6 L 16 4 L 18 4 L 18 6 Z" fill="currentColor" fill-rule="nonzero"></path>
  <path d="M 4 4 L 2 4 L 2 2 L 4 2 L 4 4 Z" fill="currentColor" fill-rule="nonzero"></path>
  <path d="M 20 4 L 18 4 L 18 2 L 20 2 L 20 4 Z" fill="currentColor" fill-rule="nonzero"></path>
  <path d="M 2 2 L 0 2 L 0 0 L 2 0 L 2 2 Z" fill="currentColor" fill-rule="nonzero"></path>
  <path d="M 22 2 L 20 2 L 20 0 L 22 0 L 22 2 Z" fill="currentColor" fill-rule="nonzero"></path>
</svg>