<svg xmlns="http://www.w3.org/2000/svg" width="22" height="12" viewBox="0 0 22 12" fill="none">
  <path d="M 10 0 L 12 0 L 12 2 L 10 2 L 10 0 Z" fill="currentColor" fill-rule="nonzero"></path>
  <path d="M 12 2 L 14 2 L 14 4 L 12 4 L 12 2 Z" fill="currentColor" fill-rule="nonzero"></path>
  <path d="M 8 2 L 10 2 L 10 4 L 8 4 L 8 2 Z" fill="currentColor" fill-rule="nonzero"></path>
  <path d="M 14 4 L 16 4 L 16 6 L 14 6 L 14 4 Z" fill="currentColor" fill-rule="nonzero"></path>
  <path d="M 6 4 L 8 4 L 8 6 L 6 6 L 6 4 Z" fill="currentColor" fill-rule="nonzero"></path>
  <path d="M 16 6 L 18 6 L 18 8 L 16 8 L 16 6 Z" fill="currentColor" fill-rule="nonzero"></path>
  <path d="M 4 6 L 6 6 L 6 8 L 4 8 L 4 6 Z" fill="currentColor" fill-rule="nonzero"></path>
  <path d="M 18 8 L 20 8 L 20 10 L 18 10 L 18 8 Z" fill="currentColor" fill-rule="nonzero"></path>
  <path d="M 2 8 L 4 8 L 4 10 L 2 10 L 2 8 Z" fill="currentColor" fill-rule="nonzero"></path>
  <path d="M 20 10 L 22 10 L 22 12 L 20 12 L 20 10 Z" fill="currentColor" fill-rule="nonzero"></path>
  <path d="M 0 10 L 2 10 L 2 12 L 0 12 L 0 10 Z" fill="currentColor" fill-rule="nonzero"></path>
</svg>