<svg xmlns="http://www.w3.org/2000/svg" width="14" height="8" viewBox="0 0 14 8" fill="none">
  <path d="M 8 8 L 6 8 L 6 6 L 8 6 L 8 8 Z" fill="currentColor" fill-rule="nonzero"></path>
  <path d="M 6 6 L 4 6 L 4 4 L 6 4 L 6 6 Z" fill="currentColor" fill-rule="nonzero"></path>
  <path d="M 10 6 L 8 6 L 8 4 L 10 4 L 10 6 Z" fill="currentColor" fill-rule="nonzero"></path>
  <path d="M 4 4 L 2 4 L 2 2 L 4 2 L 4 4 Z" fill="currentColor" fill-rule="nonzero"></path>
  <path d="M 12 4 L 10 4 L 10 2 L 12 2 L 12 4 Z" fill="currentColor" fill-rule="nonzero"></path>
  <path d="M 2 2 L 0 2 L 0 0 L 2 0 L 2 2 Z" fill="currentColor" fill-rule="nonzero"></path>
  <path d="M 14 2 L 12 2 L 12 0 L 14 0 L 14 2 Z" fill="currentColor" fill-rule="nonzero"></path>
</svg>