<svg xmlns="http://www.w3.org/2000/svg" width="14" height="14" viewBox="0 0 14 14" fill="none">
  <path d="M 2 0 L 0 0 L 0 2 L 2 2 L 2 0 Z" fill="currentColor" fill-rule="nonzero"></path>
  <path d="M 14 0 L 12 0 L 12 2 L 14 2 L 14 0 Z" fill="currentColor" fill-rule="nonzero"></path>
  <path d="M 4 2 L 2 2 L 2 4 L 4 4 L 4 2 Z" fill="currentColor" fill-rule="nonzero"></path>
  <path d="M 12 2 L 10 2 L 10 4 L 12 4 L 12 2 Z" fill="currentColor" fill-rule="nonzero"></path>
  <path d="M 6 4 L 4 4 L 4 6 L 6 6 L 6 4 Z" fill="currentColor" fill-rule="nonzero"></path>
  <path d="M 10 4 L 8 4 L 8 6 L 10 6 L 10 4 Z" fill="currentColor" fill-rule="nonzero"></path>
  <path d="M 8 6 L 6 6 L 6 8 L 8 8 L 8 6 Z" fill="currentColor" fill-rule="nonzero"></path>
  <path d="M 6 8 L 4 8 L 4 10 L 6 10 L 6 8 Z" fill="currentColor" fill-rule="nonzero"></path>
  <path d="M 10 8 L 8 8 L 8 10 L 10 10 L 10 8 Z" fill="currentColor" fill-rule="nonzero"></path>
  <path d="M 4 10 L 2 10 L 2 12 L 4 12 L 4 10 Z" fill="currentColor" fill-rule="nonzero"></path>
  <path d="M 12 10 L 10 10 L 10 12 L 12 12 L 12 10 Z" fill="currentColor" fill-rule="nonzero"></path>
  <path d="M 2 12 L 0 12 L 0 14 L 2 14 L 2 12 Z" fill="currentColor" fill-rule="nonzero"></path>
  <path d="M 14 12 L 12 12 L 12 14 L 14 14 L 14 12 Z" fill="currentColor" fill-rule="nonzero"></path>
</svg>