<svg xmlns="http://www.w3.org/2000/svg" width="18" height="18" viewBox="0 0 18 18" fill="none">
  <path d="M 2 0 L 0 0 L 0 2 L 2 2 L 2 0 Z" fill="currentColor" fill-rule="nonzero"></path>
  <path d="M 18 0 L 16 0 L 16 2 L 18 2 L 18 0 Z" fill="currentColor" fill-rule="nonzero"></path>
  <path d="M 4 2 L 2 2 L 2 4 L 4 4 L 4 2 Z" fill="currentColor" fill-rule="nonzero"></path>
  <path d="M 16 2 L 14 2 L 14 4 L 16 4 L 16 2 Z" fill="currentColor" fill-rule="nonzero"></path>
  <path d="M 6 4 L 4 4 L 4 6 L 6 6 L 6 4 Z" fill="currentColor" fill-rule="nonzero"></path>
  <path d="M 14 4 L 12 4 L 12 6 L 14 6 L 14 4 Z" fill="currentColor" fill-rule="nonzero"></path>
  <path d="M 8 6 L 6 6 L 6 8 L 8 8 L 8 6 Z" fill="currentColor" fill-rule="nonzero"></path>
  <path d="M 12 6 L 10 6 L 10 8 L 12 8 L 12 6 Z" fill="currentColor" fill-rule="nonzero"></path>
  <path d="M 10 8 L 8 8 L 8 10 L 10 10 L 10 8 Z" fill="currentColor" fill-rule="nonzero"></path>
  <path d="M 8 10 L 6 10 L 6 12 L 8 12 L 8 10 Z" fill="currentColor" fill-rule="nonzero"></path>
  <path d="M 12 10 L 10 10 L 10 12 L 12 12 L 12 10 Z" fill="currentColor" fill-rule="nonzero"></path>
  <path d="M 6 12 L 4 12 L 4 14 L 6 14 L 6 12 Z" fill="currentColor" fill-rule="nonzero"></path>
  <path d="M 14 12 L 12 12 L 12 14 L 14 14 L 14 12 Z" fill="currentColor" fill-rule="nonzero"></path>
  <path d="M 4 14 L 2 14 L 2 16 L 4 16 L 4 14 Z" fill="currentColor" fill-rule="nonzero"></path>
  <path d="M 16 14 L 14 14 L 14 16 L 16 16 L 16 14 Z" fill="currentColor" fill-rule="nonzero"></path>
  <path d="M 2 16 L 0 16 L 0 18 L 2 18 L 2 16 Z" fill="currentColor" fill-rule="nonzero"></path>
  <path d="M 18 16 L 16 16 L 16 18 L 18 18 L 18 16 Z" fill="currentColor" fill-rule="nonzero"></path>
</svg>