<svg xmlns="http://www.w3.org/2000/svg" width="24" height="16" viewBox="0 0 24 16" fill="none">
  <path d="M 22 16 L 2 16 L 2 14 L 22 14 L 22 16 Z" fill="currentColor" fill-rule="nonzero"></path>
  <path d="M 2 14 L 0 14 L 0 8 L 2 8 L 2 14 Z" fill="currentColor" fill-rule="nonzero"></path>
  <path d="M 24 14 L 22 14 L 22 8 L 24 8 L 24 14 Z" fill="currentColor" fill-rule="nonzero"></path>
  <path d="M 12 12 L 10 12 L 10 10 L 12 10 L 12 12 Z" fill="currentColor" fill-rule="nonzero"></path>
  <path d="M 10 10 L 8 10 L 8 8 L 10 8 L 10 10 Z" fill="currentColor" fill-rule="nonzero"></path>
  <path d="M 14 10 L 12 10 L 12 8 L 14 8 L 14 10 Z" fill="currentColor" fill-rule="nonzero"></path>
  <path d="M 4 8 L 2 8 L 2 6 L 4 6 L 4 8 Z" fill="currentColor" fill-rule="nonzero"></path>
  <path d="M 16 8 L 14 8 L 14 6 L 16 6 L 16 8 Z" fill="currentColor" fill-rule="nonzero"></path>
  <path d="M 20 6 L 22 6 L 22 8 L 18 8 L 18 4 L 20 4 L 20 6 Z" fill="currentColor" fill-rule="nonzero"></path>
  <path d="M 8 6 L 4 6 L 4 4 L 8 4 L 8 6 Z" fill="currentColor" fill-rule="nonzero"></path>
  <path d="M 10 4 L 8 4 L 8 2 L 10 2 L 10 4 Z" fill="currentColor" fill-rule="nonzero"></path>
  <path d="M 18 4 L 16 4 L 16 2 L 18 2 L 18 4 Z" fill="currentColor" fill-rule="nonzero"></path>
  <path d="M 16 2 L 10 2 L 10 0 L 16 0 L 16 2 Z" fill="currentColor" fill-rule="nonzero"></path>
</svg>