<svg xmlns="http://www.w3.org/2000/svg" width="20" height="20" viewBox="0 0 20 20" fill="none">
  <path d="M 4 0 L 16 0 L 16 2 L 4 2 L 4 0 Z" fill="currentColor" fill-rule="nonzero"></path>
  <path d="M 2 4 L 2 2 L 4 2 L 4 4 L 2 4 Z" fill="currentColor" fill-rule="nonzero"></path>
  <path d="M 2 16 L 2 4 L 0 4 L 0 16 L 2 16 Z" fill="currentColor" fill-rule="nonzero"></path>
  <path d="M 4 18 L 4 16 L 2 16 L 2 18 L 4 18 Z" fill="currentColor" fill-rule="nonzero"></path>
  <path d="M 16 18 L 16 20 L 4 20 L 4 18 L 16 18 Z" fill="currentColor" fill-rule="nonzero"></path>
  <path d="M 18 16 L 18 18 L 16 18 L 16 16 L 18 16 Z" fill="currentColor" fill-rule="nonzero"></path>
  <path d="M 18 4 L 20 4 L 20 16 L 18 16 L 18 4 Z" fill="currentColor" fill-rule="nonzero"></path>
  <path d="M 18 4 L 18 2 L 16 2 L 16 4 L 18 4 Z" fill="currentColor" fill-rule="nonzero"></path>
  <path d="M 9 3 L 11 3 L 11 5 L 14 5 L 14 7 L 8 7 L 8 9 L 14 9 L 14 15 L 11 15 L 11 17 L 9 17 L 9 15 L 6 15 L 6 13 L 12 13 L 12 11 L 6 11 L 6 5 L 9 5 L 9 3 Z" fill="currentColor" fill-rule="nonzero"></path>
</svg>