<svg xmlns="http://www.w3.org/2000/svg" width="20.000" height="20" viewBox="0 0 20.000 20" fill="none">
  <path d="M 2 0 L 0 0 L 0 8 L 2 8 L 2 0 Z" fill="currentColor" fill-rule="nonzero"></path>
  <path d="M 18 0 L 20 0 L 20 8 L 18 8 L 18 0 Z" fill="currentColor" fill-rule="nonzero"></path>
  <path d="M 12 6 L 8 6 L 8 0 L 2 0 L 2 2 L 6 2 L 6 6 L 2 6 L 2 8 L 6 8 L 6 12 L 2 12 L 2 14 L 6 14 L 6 18 L 2 18 L 2 20 L 8 20 L 8 14 L 12 14 L 12 20 L 14 20 L 14 14 L 18 14 L 18 12 L 14 12 L 14 8 L 18 8 L 18 6 L 14 6 L 14 0 L 12 0 L 12 6 Z M 8 12 L 8 8 L 12 8 L 12 12 L 8 12 Z" fill="currentColor" fill-rule="evenodd"></path>
  <path d="M 18 0 L 14 0 L 14 2 L 18 2 L 18 0 Z" fill="currentColor" fill-rule="nonzero"></path>
  <path d="M 0 12 L 2 12 L 2 20 L 0 20 L 0 12 Z" fill="currentColor" fill-rule="nonzero"></path>
  <path d="M 14 18 L 18 18 L 18 20 L 14 20 L 14 18 Z" fill="currentColor" fill-rule="nonzero"></path>
  <path d="M 20 12 L 18 12 L 18 20 L 20 20 L 20 12 Z" fill="currentColor" fill-rule="nonzero"></path>
</svg>