<svg xmlns="http://www.w3.org/2000/svg" width="24" height="18" viewBox="0 0 24 18" fill="none">
  <path d="M 10 2 L 10 0 L 6 0 L 6 2 L 10 2 Z" fill="currentColor" fill-rule="nonzero"></path>
  <path d="M 18 2 L 18 0 L 14 0 L 14 2 L 18 2 Z" fill="currentColor" fill-rule="nonzero"></path>
  <path d="M 6 2 L 4 2 L 4 4 L 6 4 L 6 2 Z" fill="currentColor" fill-rule="nonzero"></path>
  <path d="M 14 4 L 14 2 L 10 2 L 10 4 L 14 4 Z" fill="currentColor" fill-rule="nonzero"></path>
  <path d="M 20 2 L 18 2 L 18 4 L 20 4 L 20 2 Z" fill="currentColor" fill-rule="nonzero"></path>
  <path d="M 4 4 L 2 4 L 2 8 L 4 8 L 4 4 Z" fill="currentColor" fill-rule="nonzero"></path>
  <path d="M 8 10 L 10 10 L 10 6 L 8 6 L 8 10 Z" fill="currentColor" fill-rule="nonzero"></path>
  <path d="M 14 10 L 16 10 L 16 6 L 14 6 L 14 10 Z" fill="currentColor" fill-rule="nonzero"></path>
  <path d="M 20 8 L 22 8 L 22 4 L 20 4 L 20 8 Z" fill="currentColor" fill-rule="nonzero"></path>
  <path d="M 22 8 L 22 14 L 20 14 L 20 16 L 24 16 L 24 8 L 22 8 Z" fill="currentColor" fill-rule="nonzero"></path>
  <path d="M 6 12 L 6 14 L 10 14 L 10 12 L 6 12 Z" fill="currentColor" fill-rule="nonzero"></path>
  <path d="M 18 14 L 18 12 L 14 12 L 14 14 L 18 14 Z" fill="currentColor" fill-rule="nonzero"></path>
  <path d="M 2 14 L 2 8 L 0 8 L 0 16 L 4 16 L 4 14 L 2 14 Z" fill="currentColor" fill-rule="nonzero"></path>
  <path d="M 10 14 L 10 16 L 14 16 L 14 14 L 10 14 Z" fill="currentColor" fill-rule="nonzero"></path>
  <path d="M 4 16 L 4 18 L 10 18 L 10 16 L 4 16 Z" fill="currentColor" fill-rule="nonzero"></path>
  <path d="M 14 16 L 14 18 L 20 18 L 20 16 L 14 16 Z" fill="currentColor" fill-rule="nonzero"></path>
</svg>