<svg xmlns="http://www.w3.org/2000/svg" width="16" height="20" viewBox="0 0 16 20" fill="none">
  <path d="M 14 2 L 12 2 L 12 4 L 14 4 L 14 2 Z" fill="currentColor" fill-rule="nonzero"></path>
  <path d="M 14 4 L 14 6 L 10 6 L 10 2 L 12 2 L 12 0 L 0 0 L 0 20 L 16 20 L 16 4 L 14 4 Z M 14 18 L 2 18 L 2 2 L 8 2 L 8 8 L 14 8 L 14 18 Z" fill="currentColor" fill-rule="nonzero"></path>
  <path d="M 4 10 L 4 12 L 12 12 L 12 10 L 4 10 Z" fill="currentColor" fill-rule="nonzero"></path>
  <path d="M 4 14 L 4 16 L 10 16 L 10 14 L 4 14 Z" fill="currentColor" fill-rule="nonzero"></path>
</svg>