<svg xmlns="http://www.w3.org/2000/svg" width="24" height="24" viewBox="0 0 24 24" fill="none">
  <path d="M 10 8 L 8 8 L 8 14 L 12 14 L 12 20 L 14 20 L 14 18 L 16 18 L 16 16 L 18 16 L 18 14 L 20 14 L 20 12 L 18 12 L 18 10 L 16 10 L 16 8 L 12 8 L 12 6 L 10 6 L 10 8 Z" fill="currentColor" fill-rule="nonzero"></path>
  <path d="M 22 8 L 22 4 L 20 4 L 20 2 L 16 2 L 16 0 L 8 0 L 8 2 L 14 2 L 14 4 L 12 4 L 12 6 L 16 6 L 16 8 L 20 8 L 20 10 L 22 10 L 22 16 L 24 16 L 24 8 L 22 8 Z" fill="currentColor" fill-rule="nonzero"></path>
  <path d="M 20 20 L 22 20 L 22 16 L 20 16 L 20 20 Z" fill="currentColor" fill-rule="nonzero"></path>
  <path d="M 16 20 L 16 22 L 20 22 L 20 20 L 16 20 Z" fill="currentColor" fill-rule="nonzero"></path>
  <path d="M 10 22 L 10 20 L 8 20 L 8 18 L 6 18 L 6 16 L 4 16 L 4 14 L 2 14 L 2 10 L 4 10 L 4 12 L 6 12 L 6 4 L 8 4 L 8 2 L 4 2 L 4 4 L 2 4 L 2 8 L 0 8 L 0 16 L 2 16 L 2 20 L 4 20 L 4 22 L 8 22 L 8 24 L 16 24 L 16 22 L 10 22 Z" fill="currentColor" fill-rule="nonzero"></path>
</svg>