<svg xmlns="http://www.w3.org/2000/svg" width="20" height="20" viewBox="0 0 20 20" fill="none">
  <path d="M 8 4 L 2 4 L 2 18 L 16 18 L 16 12 L 18 12 L 18 20 L 0 20 L 0 2 L 8 2 L 8 4 Z M 6 14 L 10 14 L 10 16 L 4 16 L 4 10 L 6 10 L 6 14 Z M 12 14 L 10 14 L 10 12 L 12 12 L 12 14 Z M 14 12 L 12 12 L 12 10 L 14 10 L 14 12 Z M 8 10 L 6 10 L 6 8 L 8 8 L 8 10 Z M 16 10 L 14 10 L 14 8 L 16 8 L 16 10 Z M 10 8 L 8 8 L 8 6 L 10 6 L 10 8 Z M 18 8 L 16 8 L 16 6 L 18 6 L 18 8 Z M 12 6 L 10 6 L 10 4 L 12 4 L 12 6 Z M 20 6 L 18 6 L 18 4 L 20 4 L 20 6 Z M 14 4 L 12 4 L 12 2 L 14 2 L 14 4 Z M 18 4 L 16 4 L 16 2 L 18 2 L 18 4 Z M 16 2 L 14 2 L 14 0 L 16 0 L 16 2 Z" fill="currentColor" fill-rule="nonzero"></path>
</svg>