<svg xmlns="http://www.w3.org/2000/svg" width="20" height="20" viewBox="0 0 20 20" fill="none">
  <path d="M 0 0 L 0 8 L 2 8 L 2 4 L 4 4 L 4 2 L 8 2 L 8 0 L 0 0 Z" fill="currentColor" fill-rule="nonzero"></path>
  <path d="M 6 4 L 4 4 L 4 6 L 6 6 L 6 4 Z" fill="currentColor" fill-rule="nonzero"></path>
  <path d="M 8 6 L 6 6 L 6 8 L 8 8 L 8 6 Z" fill="currentColor" fill-rule="nonzero"></path>
  <path d="M 18 12 L 18 16 L 16 16 L 16 18 L 12 18 L 12 20 L 20 20 L 20 12 L 18 12 Z" fill="currentColor" fill-rule="nonzero"></path>
  <path d="M 14 12 L 12 12 L 12 14 L 14 14 L 14 12 Z" fill="currentColor" fill-rule="nonzero"></path>
  <path d="M 16 14 L 14 14 L 14 16 L 16 16 L 16 14 Z" fill="currentColor" fill-rule="nonzero"></path>
</svg>