<svg xmlns="http://www.w3.org/2000/svg" width="18" height="18" viewBox="0 0 18 18" fill="none">
  <path d="M 8 4 L 2 4 L 2 16 L 14 16 L 14 10 L 16 10 L 16 18 L 0 18 L 0 2 L 8 2 L 8 4 Z" fill="currentColor" fill-rule="nonzero"></path>
  <path d="M 8 12 L 6 12 L 6 10 L 8 10 L 8 12 Z" fill="currentColor" fill-rule="nonzero"></path>
  <path d="M 10 10 L 8 10 L 8 8 L 10 8 L 10 10 Z" fill="currentColor" fill-rule="nonzero"></path>
  <path d="M 12 8 L 10 8 L 10 6 L 12 6 L 12 8 Z" fill="currentColor" fill-rule="nonzero"></path>
  <path d="M 18 8 L 16 8 L 16 4 L 14 4 L 14 2 L 10 2 L 10 0 L 18 0 L 18 8 Z" fill="currentColor" fill-rule="nonzero"></path>
  <path d="M 14 6 L 12 6 L 12 4 L 14 4 L 14 6 Z" fill="currentColor" fill-rule="nonzero"></path>
</svg>