<svg xmlns="http://www.w3.org/2000/svg" width="24" height="18" viewBox="0 0 24 18" fill="none">
  <path d="M 4 0 L 2 0 L 2 2 L 4 2 L 4 0 Z" fill="currentColor" fill-rule="nonzero"></path>
  <path d="M 10 2 L 10 4 L 16 4 L 16 2 L 10 2 Z" fill="currentColor" fill-rule="nonzero"></path>
  <path d="M 8 6 L 8 4 L 6 4 L 6 2 L 4 2 L 4 6 L 8 6 Z" fill="currentColor" fill-rule="nonzero"></path>
  <path d="M 16 4 L 16 6 L 20 6 L 20 4 L 16 4 Z" fill="currentColor" fill-rule="nonzero"></path>
  <path d="M 4 6 L 2 6 L 2 8 L 4 8 L 4 6 Z" fill="currentColor" fill-rule="nonzero"></path>
  <path d="M 10 6 L 8 6 L 8 8 L 10 8 L 10 6 Z" fill="currentColor" fill-rule="nonzero"></path>
  <path d="M 22 6 L 20 6 L 20 8 L 22 8 L 22 6 Z" fill="currentColor" fill-rule="nonzero"></path>
  <path d="M 2 8 L 0 8 L 0 10 L 2 10 L 2 8 Z" fill="currentColor" fill-rule="nonzero"></path>
  <path d="M 12 8 L 10 8 L 10 10 L 12 10 L 12 8 Z" fill="currentColor" fill-rule="nonzero"></path>
  <path d="M 24 8 L 22 8 L 22 10 L 24 10 L 24 8 Z" fill="currentColor" fill-rule="nonzero"></path>
  <path d="M 4 10 L 2 10 L 2 12 L 4 12 L 4 10 Z" fill="currentColor" fill-rule="nonzero"></path>
  <path d="M 14 10 L 12 10 L 12 12 L 14 12 L 14 10 Z" fill="currentColor" fill-rule="nonzero"></path>
  <path d="M 22 10 L 20 10 L 20 12 L 22 12 L 22 10 Z" fill="currentColor" fill-rule="nonzero"></path>
  <path d="M 4 12 L 4 14 L 8 14 L 8 12 L 4 12 Z" fill="currentColor" fill-rule="nonzero"></path>
  <path d="M 16 14 L 16 12 L 14 12 L 14 14 L 8 14 L 8 16 L 18 16 L 18 14 L 16 14 Z" fill="currentColor" fill-rule="nonzero"></path>
  <path d="M 20 16 L 18 16 L 18 18 L 20 18 L 20 16 Z" fill="currentColor" fill-rule="nonzero"></path>
</svg>