<svg xmlns="http://www.w3.org/2000/svg" width="24" height="14" viewBox="0 0 24 14" fill="none">
  <path d="M 16 2 L 16 0 L 8 0 L 8 2 L 16 2 Z" fill="currentColor" fill-rule="nonzero"></path>
  <path d="M 8 4 L 8 2 L 4 2 L 4 4 L 8 4 Z" fill="currentColor" fill-rule="nonzero"></path>
  <path d="M 20 4 L 20 2 L 16 2 L 16 4 L 20 4 Z" fill="currentColor" fill-rule="nonzero"></path>
  <path d="M 4 4 L 2 4 L 2 6 L 4 6 L 4 4 Z" fill="currentColor" fill-rule="nonzero"></path>
  <path d="M 10 4 L 10 10 L 14 10 L 14 4 L 10 4 Z" fill="currentColor" fill-rule="nonzero"></path>
  <path d="M 22 4 L 20 4 L 20 6 L 22 6 L 22 4 Z" fill="currentColor" fill-rule="nonzero"></path>
  <path d="M 2 6 L 0 6 L 0 8 L 2 8 L 2 6 Z" fill="currentColor" fill-rule="nonzero"></path>
  <path d="M 24 6 L 22 6 L 22 8 L 24 8 L 24 6 Z" fill="currentColor" fill-rule="nonzero"></path>
  <path d="M 4 8 L 2 8 L 2 10 L 4 10 L 4 8 Z" fill="currentColor" fill-rule="nonzero"></path>
  <path d="M 22 8 L 20 8 L 20 10 L 22 10 L 22 8 Z" fill="currentColor" fill-rule="nonzero"></path>
  <path d="M 4 10 L 4 12 L 8 12 L 8 10 L 4 10 Z" fill="currentColor" fill-rule="nonzero"></path>
  <path d="M 16 10 L 16 12 L 20 12 L 20 10 L 16 10 Z" fill="currentColor" fill-rule="nonzero"></path>
  <path d="M 8 12 L 8 14 L 16 14 L 16 12 L 8 12 Z" fill="currentColor" fill-rule="nonzero"></path>
</svg>