<svg xmlns="http://www.w3.org/2000/svg" width="22" height="18" viewBox="0 0 22 18" fill="none">
  <path d="M 8 2 L 8 0 L 4 0 L 4 2 L 8 2 Z" fill="currentColor" fill-rule="nonzero"></path>
  <path d="M 18 2 L 18 0 L 14 0 L 14 2 L 18 2 Z" fill="currentColor" fill-rule="nonzero"></path>
  <path d="M 4 2 L 2 2 L 2 4 L 4 4 L 4 2 Z" fill="currentColor" fill-rule="nonzero"></path>
  <path d="M 14 4 L 14 2 L 8 2 L 8 4 L 14 4 Z" fill="currentColor" fill-rule="nonzero"></path>
  <path d="M 20 2 L 18 2 L 18 4 L 20 4 L 20 2 Z" fill="currentColor" fill-rule="nonzero"></path>
  <path d="M 2 4 L 0 4 L 0 8 L 2 8 L 2 4 Z" fill="currentColor" fill-rule="nonzero"></path>
  <path d="M 20 4 L 20 8 L 22 8 L 22 4 L 20 4 Z" fill="currentColor" fill-rule="nonzero"></path>
  <path d="M 18 6 L 16 6 L 16 16 L 6 16 L 6 6 L 4 6 L 4 8 L 2 8 L 2 10 L 4 10 L 4 18 L 18 18 L 18 10 L 20 10 L 20 8 L 18 8 L 18 6 Z" fill="currentColor" fill-rule="nonzero"></path>
</svg>