<svg xmlns="http://www.w3.org/2000/svg" width="18" height="16" viewBox="0 0 18 16" fill="none">
  <path d="M 4 16 L 2 16 L 2 14 L 4 14 L 4 16 Z" fill="currentColor" fill-rule="nonzero"></path>
  <path d="M 16 16 L 14 16 L 14 14 L 16 14 L 16 16 Z" fill="currentColor" fill-rule="nonzero"></path>
  <path d="M 2 14 L 0 14 L 0 4 L 2 4 L 2 14 Z" fill="currentColor" fill-rule="nonzero"></path>
  <path d="M 18 14 L 16 14 L 16 6 L 18 6 L 18 14 Z" fill="currentColor" fill-rule="nonzero"></path>
  <path d="M 11 12 L 7 12 L 7 8 L 11 8 L 11 12 Z" fill="currentColor" fill-rule="nonzero"></path>
  <path d="M 13 8 L 11 8 L 11 6 L 13 6 L 13 8 Z" fill="currentColor" fill-rule="nonzero"></path>
  <path d="M 15 6 L 13 6 L 13 4 L 15 4 L 15 6 Z" fill="currentColor" fill-rule="nonzero"></path>
  <path d="M 4 4 L 2 4 L 2 2 L 4 2 L 4 4 Z" fill="currentColor" fill-rule="nonzero"></path>
  <path d="M 17 4 L 15 4 L 15 2 L 17 2 L 17 4 Z" fill="currentColor" fill-rule="nonzero"></path>
  <path d="M 14 2 L 4 2 L 4 0 L 14 0 L 14 2 Z" fill="currentColor" fill-rule="nonzero"></path>
</svg>