<svg xmlns="http://www.w3.org/2000/svg" width="20" height="20" viewBox="0 0 20 20" fill="none">
  <path d="M 4 0 L 8 0 L 8 2 L 6 2 L 6 4 L 4 4 L 4 0 Z" fill="currentColor" fill-rule="nonzero"></path>
  <path d="M 4 10 L 2 10 L 2 4 L 4 4 L 4 10 Z" fill="currentColor" fill-rule="nonzero"></path>
  <path d="M 6 12 L 4 12 L 4 10 L 6 10 L 6 12 Z" fill="currentColor" fill-rule="nonzero"></path>
  <path d="M 8 14 L 8 12 L 6 12 L 6 14 L 2 14 L 2 12 L 0 12 L 0 14 L 2 14 L 2 16 L 6 16 L 6 20 L 8 20 L 8 16 L 10 16 L 10 14 L 8 14 Z M 8 14 L 8 16 L 6 16 L 6 14 L 8 14 Z" fill="currentColor" fill-rule="evenodd"></path>
  <path d="M 14 2 L 14 4 L 8 4 L 8 2 L 14 2 Z" fill="currentColor" fill-rule="nonzero"></path>
  <path d="M 18 4 L 16 4 L 16 2 L 14 2 L 14 0 L 18 0 L 18 4 Z" fill="currentColor" fill-rule="nonzero"></path>
  <path d="M 18 10 L 18 4 L 20 4 L 20 10 L 18 10 Z" fill="currentColor" fill-rule="nonzero"></path>
  <path d="M 16 12 L 16 10 L 18 10 L 18 12 L 16 12 Z" fill="currentColor" fill-rule="nonzero"></path>
  <path d="M 14 14 L 14 12 L 16 12 L 16 14 L 14 14 Z" fill="currentColor" fill-rule="nonzero"></path>
  <path d="M 14 16 L 12 16 L 12 14 L 14 14 L 14 16 Z" fill="currentColor" fill-rule="nonzero"></path>
  <path d="M 14 16 L 16 16 L 16 20 L 14 20 L 14 16 Z" fill="currentColor" fill-rule="nonzero"></path>
</svg>