<svg xmlns="http://www.w3.org/2000/svg" width="9" height="19" viewBox="0 0 9 19" fill="none">
  <path d="M 0 0 L 3 0 L 3 3 L 0 3 L 0 0 Z" fill="currentColor" fill-rule="nonzero"></path>
  <path d="M 6 0 L 9 0 L 9 3 L 6 3 L 6 0 Z" fill="currentColor" fill-rule="nonzero"></path>
  <path d="M 0 8 L 3 8 L 3 11 L 0 11 L 0 8 Z" fill="currentColor" fill-rule="nonzero"></path>
  <path d="M 6 8 L 9 8 L 9 11 L 6 11 L 6 8 Z" fill="currentColor" fill-rule="nonzero"></path>
  <path d="M 0 16 L 3 16 L 3 19 L 0 19 L 0 16 Z" fill="currentColor" fill-rule="nonzero"></path>
  <path d="M 6 16 L 9 16 L 9 19 L 6 19 L 6 16 Z" fill="currentColor" fill-rule="nonzero"></path>
</svg>