<svg xmlns="http://www.w3.org/2000/svg" width="24" height="22" viewBox="0 0 24 22" fill="none">
  <path d="M 6 18 L 6 20 L 10 20 L 10 18 L 6 18 Z" fill="currentColor" fill-rule="nonzero"></path>
  <path d="M 14 18 L 14 20 L 18 20 L 18 18 L 14 18 Z" fill="currentColor" fill-rule="nonzero"></path>
  <path d="M 10 20 L 10 22 L 14 22 L 14 20 L 10 20 Z" fill="currentColor" fill-rule="nonzero"></path>
  <path d="M 14 2 L 14 0 L 10 0 L 10 2 L 14 2 Z" fill="currentColor" fill-rule="nonzero"></path>
  <path d="M 10 4 L 10 2 L 6 2 L 6 4 L 10 4 Z" fill="currentColor" fill-rule="nonzero"></path>
  <path d="M 18 4 L 18 2 L 14 2 L 14 4 L 18 4 Z" fill="currentColor" fill-rule="nonzero"></path>
  <path d="M 6 6 L 6 4 L 2 4 L 2 6 L 6 6 Z" fill="currentColor" fill-rule="nonzero"></path>
  <path d="M 22 6 L 22 4 L 18 4 L 18 6 L 22 6 Z" fill="currentColor" fill-rule="nonzero"></path>
  <path d="M 22 6 L 22 8 L 18 8 L 18 10 L 14 10 L 14 12 L 18 12 L 18 18 L 20 18 L 20 10 L 22 10 L 22 14 L 24 14 L 24 6 L 22 6 Z" fill="currentColor" fill-rule="nonzero"></path>
  <path d="M 2 6 L 0 6 L 0 8 L 2 8 L 2 6 Z" fill="currentColor" fill-rule="nonzero"></path>
  <path d="M 10 12 L 10 14 L 14 14 L 14 12 L 10 12 Z" fill="currentColor" fill-rule="nonzero"></path>
  <path d="M 6 12 L 10 12 L 10 10 L 6 10 L 6 8 L 2 8 L 2 10 L 4 10 L 4 18 L 6 18 L 6 12 Z" fill="currentColor" fill-rule="nonzero"></path>
</svg>