<svg xmlns="http://www.w3.org/2000/svg" width="18" height="18" viewBox="0 0 18 18" fill="none">
  <path d="M 8 12 L 12 12 L 12 8 L 14 8 L 14 12 L 18 12 L 18 14 L 14 14 L 14 18 L 12 18 L 12 14 L 8 14 L 8 12 Z M 6 12 L 6 14 L 4 14 L 4 12 L 6 12 Z M 2 12 L 2 14 L 0 14 L 0 12 L 2 12 Z M 14 4 L 14 6 L 12 6 L 12 4 L 14 4 Z M 14 0 L 14 2 L 12 2 L 12 0 L 14 0 Z M 10 0 L 10 2 L 8 2 L 8 0 L 10 0 Z M 6 0 L 6 2 L 4 2 L 4 0 L 6 0 Z M 2 0 L 2 2 L 0 2 L 0 0 L 2 0 Z M 2 8 L 2 10 L 0 10 L 0 8 L 2 8 Z M 2 4 L 2 6 L 0 6 L 0 4 L 2 4 Z" fill="currentColor" fill-rule="nonzero"></path>
</svg>