<svg xmlns="http://www.w3.org/2000/svg" width="20" height="18" viewBox="0 0 20 18" fill="none">
  <path d="M 2 0 L 18 0 L 18 2 L 2 2 L 2 0 Z" fill="currentColor" fill-rule="nonzero"></path>
  <path d="M 2 16 L 18 16 L 18 18 L 2 18 L 2 16 Z" fill="currentColor" fill-rule="nonzero"></path>
  <path d="M 0 0 L 2 0 L 2 18 L 0 18 L 0 0 Z" fill="currentColor" fill-rule="nonzero"></path>
  <path d="M 18 0 L 20 0 L 20 18 L 18 18 L 18 0 Z" fill="currentColor" fill-rule="nonzero"></path>
  <path d="M 10 6 L 12 6 L 12 8 L 10 8 L 10 6 Z" fill="currentColor" fill-rule="nonzero"></path>
  <path d="M 8 8 L 10 8 L 10 10 L 8 10 L 8 8 Z" fill="currentColor" fill-rule="nonzero"></path>
  <path d="M 12 8 L 14 8 L 14 10 L 12 10 L 12 8 Z" fill="currentColor" fill-rule="nonzero"></path>
  <path d="M 6 10 L 8 10 L 8 12 L 6 12 L 6 10 Z" fill="currentColor" fill-rule="nonzero"></path>
  <path d="M 14 10 L 16 10 L 16 12 L 14 12 L 14 10 Z" fill="currentColor" fill-rule="nonzero"></path>
  <path d="M 4 12 L 6 12 L 6 14 L 4 14 L 4 12 Z" fill="currentColor" fill-rule="nonzero"></path>
  <path d="M 4 4 L 6 4 L 6 6 L 4 6 L 4 4 Z" fill="currentColor" fill-rule="nonzero"></path>
</svg>