<svg xmlns="http://www.w3.org/2000/svg" width="22" height="22" viewBox="0 0 22 22" fill="none">
  <path d="M 20 2 L 20 0 L 2 0 L 2 2 L 20 2 Z" fill="currentColor" fill-rule="nonzero"></path>
  <path d="M 20 2 L 20 20 L 22 20 L 22 2 L 20 2 Z" fill="currentColor" fill-rule="nonzero"></path>
  <path d="M 18 4 L 16 4 L 16 6 L 18 6 L 18 4 Z" fill="currentColor" fill-rule="nonzero"></path>
  <path d="M 14 8 L 14 6 L 8 6 L 8 8 L 14 8 Z" fill="currentColor" fill-rule="nonzero"></path>
  <path d="M 14 14 L 16 14 L 16 8 L 14 8 L 14 14 Z" fill="currentColor" fill-rule="nonzero"></path>
  <path d="M 8 8 L 6 8 L 6 14 L 8 14 L 8 8 Z" fill="currentColor" fill-rule="nonzero"></path>
  <path d="M 8 14 L 8 16 L 14 16 L 14 14 L 8 14 Z" fill="currentColor" fill-rule="nonzero"></path>
  <path d="M 2 2 L 0 2 L 0 20 L 2 20 L 2 2 Z" fill="currentColor" fill-rule="nonzero"></path>
  <path d="M 2 20 L 2 22 L 20 22 L 20 20 L 2 20 Z" fill="currentColor" fill-rule="nonzero"></path>
</svg>