<svg xmlns="http://www.w3.org/2000/svg" width="20" height="20" viewBox="0 0 20 20" fill="none">
  <path d="M 4 4 L 6 4 L 6 6 L 4 6 L 4 4 Z" fill="currentColor" fill-rule="nonzero"></path>
  <path d="M 10 0 L 0 0 L 0 10 L 2 10 L 2 12 L 4 12 L 4 14 L 6 14 L 6 16 L 8 16 L 8 18 L 10 18 L 10 20 L 12 20 L 12 18 L 14 18 L 14 16 L 16 16 L 16 14 L 18 14 L 18 12 L 20 12 L 20 10 L 18 10 L 18 8 L 16 8 L 16 6 L 14 6 L 14 4 L 12 4 L 12 2 L 10 2 L 10 0 Z M 10 2 L 10 4 L 12 4 L 12 6 L 14 6 L 14 8 L 16 8 L 16 10 L 18 10 L 18 12 L 16 12 L 16 14 L 14 14 L 14 16 L 12 16 L 12 18 L 10 18 L 10 16 L 8 16 L 8 14 L 6 14 L 6 12 L 4 12 L 4 10 L 2 10 L 2 2 L 10 2 Z" fill="currentColor" fill-rule="evenodd"></path>
</svg>