<svg xmlns="http://www.w3.org/2000/svg" width="20" height="20" viewBox="0 0 20 20" fill="none">
  <path d="M 11 20 L 9 20 L 9 14 L 11 14 L 11 20 Z" fill="currentColor" fill-rule="nonzero"></path>
  <path d="M 5 17 L 3 17 L 3 15 L 5 15 L 5 17 Z" fill="currentColor" fill-rule="nonzero"></path>
  <path d="M 17 17 L 15 17 L 15 15 L 17 15 L 17 17 Z" fill="currentColor" fill-rule="nonzero"></path>
  <path d="M 7 15 L 5 15 L 5 13 L 7 13 L 7 15 Z" fill="currentColor" fill-rule="nonzero"></path>
  <path d="M 15 15 L 13 15 L 13 13 L 15 13 L 15 15 Z" fill="currentColor" fill-rule="nonzero"></path>
  <path d="M 6 11 L 0 11 L 0 9 L 6 9 L 6 11 Z" fill="currentColor" fill-rule="nonzero"></path>
  <path d="M 20 11 L 14 11 L 14 9 L 20 9 L 20 11 Z" fill="currentColor" fill-rule="nonzero"></path>
  <path d="M 7 7 L 5 7 L 5 5 L 7 5 L 7 7 Z" fill="currentColor" fill-rule="nonzero"></path>
  <path d="M 15 7 L 13 7 L 13 5 L 15 5 L 15 7 Z" fill="currentColor" fill-rule="nonzero"></path>
  <path d="M 11 6 L 9 6 L 9 0 L 11 0 L 11 6 Z" fill="currentColor" fill-rule="nonzero"></path>
  <path d="M 5 5 L 3 5 L 3 3 L 5 3 L 5 5 Z" fill="currentColor" fill-rule="nonzero"></path>
  <path d="M 17 5 L 15 5 L 15 3 L 17 3 L 17 5 Z" fill="currentColor" fill-rule="nonzero"></path>
</svg>