<svg xmlns="http://www.w3.org/2000/svg" width="18" height="20" viewBox="0 0 18 20" fill="none">
  <path d="M 10 20 L 8 20 L 8 18 L 10 18 L 10 20 Z" fill="currentColor" fill-rule="nonzero"></path>
  <path d="M 8 18 L 6 18 L 6 16 L 8 16 L 8 18 Z" fill="currentColor" fill-rule="nonzero"></path>
  <path d="M 12 18 L 10 18 L 10 16 L 12 16 L 12 18 Z" fill="currentColor" fill-rule="nonzero"></path>
  <path d="M 6 16 L 4 16 L 4 14 L 6 14 L 6 16 Z" fill="currentColor" fill-rule="nonzero"></path>
  <path d="M 14 16 L 12 16 L 12 14 L 14 14 L 14 16 Z" fill="currentColor" fill-rule="nonzero"></path>
  <path d="M 4 14 L 2 14 L 2 12 L 4 12 L 4 14 Z" fill="currentColor" fill-rule="nonzero"></path>
  <path d="M 16 14 L 14 14 L 14 12 L 16 12 L 16 14 Z" fill="currentColor" fill-rule="nonzero"></path>
  <path d="M 2 12 L 0 12 L 0 4 L 2 4 L 2 12 Z" fill="currentColor" fill-rule="nonzero"></path>
  <path d="M 18 12 L 16 12 L 16 4 L 18 4 L 18 12 Z" fill="currentColor" fill-rule="nonzero"></path>
  <path d="M 11 10 L 7 10 L 7 6 L 11 6 L 11 10 Z" fill="currentColor" fill-rule="nonzero"></path>
  <path d="M 4 4 L 2 4 L 2 2 L 4 2 L 4 4 Z" fill="currentColor" fill-rule="nonzero"></path>
  <path d="M 16 4 L 14 4 L 14 2 L 16 2 L 16 4 Z" fill="currentColor" fill-rule="nonzero"></path>
  <path d="M 14 2 L 4 2 L 4 0 L 14 0 L 14 2 Z" fill="currentColor" fill-rule="nonzero"></path>
</svg>