<svg xmlns="http://www.w3.org/2000/svg" width="16" height="18" viewBox="0 0 16 18" fill="none">
  <path d="M 12 4 L 12 0 L 4 0 L 4 4 L 0 4 L 0 18 L 16 18 L 16 4 L 12 4 Z M 6 2 L 10 2 L 10 4 L 6 4 L 6 2 Z M 14 16 L 2 16 L 2 6 L 14 6 L 14 16 Z" fill="currentColor" fill-rule="nonzero"></path>
  <path d="M 12 8 L 10 8 L 10 10 L 12 10 L 12 8 Z" fill="currentColor" fill-rule="nonzero"></path>
  <path d="M 6 10 L 4 10 L 4 12 L 6 12 L 6 10 Z" fill="currentColor" fill-rule="nonzero"></path>
  <path d="M 10 10 L 8 10 L 8 12 L 10 12 L 10 10 Z" fill="currentColor" fill-rule="nonzero"></path>
  <path d="M 8 12 L 6 12 L 6 14 L 8 14 L 8 12 Z" fill="currentColor" fill-rule="nonzero"></path>
</svg>