<svg xmlns="http://www.w3.org/2000/svg" width="20" height="18" viewBox="0 0 20 18" fill="none">
  <path d="M 12 11 L 8 11 L 8 9 L 12 9 L 12 11 Z" fill="currentColor" fill-rule="nonzero"></path>
  <path d="M 8 9 L 6 9 L 6 7 L 8 7 L 8 9 Z" fill="currentColor" fill-rule="nonzero"></path>
  <path d="M 14 9 L 12 9 L 12 7 L 14 7 L 14 9 Z" fill="currentColor" fill-rule="nonzero"></path>
  <path d="M 6 7 L 4 7 L 4 5 L 6 5 L 6 7 Z" fill="currentColor" fill-rule="nonzero"></path>
  <path d="M 16 5 L 16 7 L 14 7 L 14 5 L 16 5 Z" fill="currentColor" fill-rule="nonzero"></path>
  <path d="M 20 18 L 0 18 L 0 0 L 20 0 L 20 18 Z M 2 16 L 18 16 L 18 2 L 2 2 L 2 16 Z" fill="currentColor" fill-rule="evenodd"></path>
</svg>