<svg xmlns="http://www.w3.org/2000/svg" width="22" height="20" viewBox="0 0 22 20" fill="none">
  <path d="M 18 20 L 16 20 L 16 18 L 18 18 L 18 20 Z" fill="currentColor" fill-rule="nonzero"></path>
  <path d="M 20 14 L 22 14 L 22 16 L 20 16 L 20 18 L 18 18 L 18 16 L 12 16 L 12 14 L 18 14 L 18 12 L 20 12 L 20 14 Z" fill="currentColor" fill-rule="nonzero"></path>
  <path d="M 20 8 L 18 8 L 18 2 L 2 2 L 2 14 L 10 14 L 10 16 L 0 16 L 0 0 L 20 0 L 20 8 Z" fill="currentColor" fill-rule="nonzero"></path>
  <path d="M 18 12 L 16 12 L 16 10 L 18 10 L 18 12 Z" fill="currentColor" fill-rule="nonzero"></path>
  <path d="M 12 10 L 8 10 L 8 8 L 12 8 L 12 10 Z" fill="currentColor" fill-rule="nonzero"></path>
  <path d="M 8 8 L 6 8 L 6 6 L 8 6 L 8 8 Z" fill="currentColor" fill-rule="nonzero"></path>
  <path d="M 14 8 L 12 8 L 12 6 L 14 6 L 14 8 Z" fill="currentColor" fill-rule="nonzero"></path>
  <path d="M 6 6 L 4 6 L 4 4 L 6 4 L 6 6 Z" fill="currentColor" fill-rule="nonzero"></path>
  <path d="M 16 6 L 14 6 L 14 4 L 16 4 L 16 6 Z" fill="currentColor" fill-rule="nonzero"></path>
</svg>