<svg xmlns="http://www.w3.org/2000/svg" width="20" height="20" viewBox="0 0 20 20" fill="none">
  <path d="M 2 2 L 2 0 L 0 0 L 0 2 L 2 2 Z" fill="currentColor" fill-rule="nonzero"></path>
  <path d="M 20 20 L 20 18 L 18 18 L 18 20 L 20 20 Z" fill="currentColor" fill-rule="nonzero"></path>
  <path d="M 18 18 L 18 16 L 16 16 L 16 18 L 18 18 Z" fill="currentColor" fill-rule="nonzero"></path>
  <path d="M 16 14 L 20 14 L 20 12 L 12 12 L 12 20 L 14 20 L 14 16 L 16 16 L 16 14 Z" fill="currentColor" fill-rule="nonzero"></path>
  <path d="M 8 0 L 6 0 L 6 4 L 4 4 L 4 6 L 0 6 L 0 8 L 8 8 L 8 0 Z" fill="currentColor" fill-rule="nonzero"></path>
  <path d="M 4 4 L 4 2 L 2 2 L 2 4 L 4 4 Z" fill="currentColor" fill-rule="nonzero"></path>
</svg>