<svg xmlns="http://www.w3.org/2000/svg" width="20" height="22" viewBox="0 0 20 22" fill="none">
  <path d="M 12 2 L 12 0 L 8 0 L 8 2 L 12 2 Z" fill="currentColor" fill-rule="nonzero"></path>
  <path d="M 8 4 L 8 2 L 4 2 L 4 4 L 8 4 Z" fill="currentColor" fill-rule="nonzero"></path>
  <path d="M 16 4 L 16 2 L 12 2 L 12 4 L 16 4 Z" fill="currentColor" fill-rule="nonzero"></path>
  <path d="M 16 4 L 16 8 L 18 8 L 18 16 L 16 16 L 16 18 L 20 18 L 20 4 L 16 4 Z" fill="currentColor" fill-rule="nonzero"></path>
  <path d="M 4 8 L 4 10 L 8 10 L 8 8 L 4 8 Z" fill="currentColor" fill-rule="nonzero"></path>
  <path d="M 12 8 L 12 10 L 16 10 L 16 8 L 12 8 Z" fill="currentColor" fill-rule="nonzero"></path>
  <path d="M 2 16 L 2 8 L 4 8 L 4 4 L 0 4 L 0 18 L 4 18 L 4 16 L 2 16 Z" fill="currentColor" fill-rule="nonzero"></path>
  <path d="M 4 18 L 4 20 L 8 20 L 8 18 L 4 18 Z" fill="currentColor" fill-rule="nonzero"></path>
  <path d="M 12 18 L 12 10 L 8 10 L 8 12 L 10 12 L 10 20 L 8 20 L 8 22 L 12 22 L 12 20 L 16 20 L 16 18 L 12 18 Z" fill="currentColor" fill-rule="nonzero"></path>
</svg>