<svg xmlns="http://www.w3.org/2000/svg" width="20" height="24" viewBox="0 0 20 24" fill="none">
  <path d="M 10 2 L 10 0 L 6 0 L 6 2 L 10 2 Z" fill="currentColor" fill-rule="nonzero"></path>
  <path d="M 6 4 L 6 2 L 2 2 L 2 4 L 6 4 Z" fill="currentColor" fill-rule="nonzero"></path>
  <path d="M 14 4 L 14 2 L 10 2 L 10 4 L 14 4 Z" fill="currentColor" fill-rule="nonzero"></path>
  <path d="M 10 6 L 10 8 L 14 8 L 14 14 L 16 14 L 16 4 L 14 4 L 14 6 L 10 6 Z" fill="currentColor" fill-rule="nonzero"></path>
  <path d="M 2 8 L 6 8 L 6 6 L 2 6 L 2 4 L 0 4 L 0 14 L 2 14 L 2 8 Z" fill="currentColor" fill-rule="nonzero"></path>
  <path d="M 2 14 L 2 16 L 6 16 L 6 14 L 2 14 Z" fill="currentColor" fill-rule="nonzero"></path>
  <path d="M 10 14 L 10 8 L 6 8 L 6 10 L 8 10 L 8 16 L 6 16 L 6 18 L 10 18 L 10 16 L 14 16 L 14 14 L 10 14 Z" fill="currentColor" fill-rule="nonzero"></path>
  <path d="M 14 16 L 14 24 L 16 24 L 16 22 L 18 22 L 18 24 L 20 24 L 20 16 L 14 16 Z" fill="currentColor" fill-rule="nonzero"></path>
</svg>