<svg xmlns="http://www.w3.org/2000/svg" width="22" height="20" viewBox="0 0 22 20" fill="none">
  <path d="M 0 0 L 0 20 L 22 20 L 22 0 L 0 0 Z M 16 2 L 16 4 L 14 4 L 14 2 L 16 2 Z M 14 14 L 8 14 L 8 6 L 14 6 L 14 14 Z M 12 2 L 12 4 L 10 4 L 10 2 L 12 2 Z M 8 2 L 8 4 L 6 4 L 6 2 L 8 2 Z M 2 2 L 4 2 L 4 4 L 2 4 L 2 2 Z M 2 6 L 6 6 L 6 14 L 2 14 L 2 6 Z M 2 18 L 2 16 L 4 16 L 4 18 L 2 18 Z M 6 18 L 6 16 L 8 16 L 8 18 L 6 18 Z M 10 18 L 10 16 L 12 16 L 12 18 L 10 18 Z M 14 18 L 14 16 L 16 16 L 16 18 L 14 18 Z M 20 18 L 18 18 L 18 16 L 20 16 L 20 18 Z M 20 14 L 16 14 L 16 6 L 20 6 L 20 14 Z M 20 4 L 18 4 L 18 2 L 20 2 L 20 4 Z" fill="currentColor" fill-rule="nonzero"></path>
</svg>