<svg xmlns="http://www.w3.org/2000/svg" width="20" height="14" viewBox="0 0 20 14" fill="none">
  <path d="M 0 6 L 0 0 L 2 0 L 2 6 L 0 6 Z" fill="currentColor" fill-rule="nonzero"></path>
  <path d="M 20 0 L 8 0 L 8 2 L 20 2 L 20 0 Z" fill="currentColor" fill-rule="nonzero"></path>
  <path d="M 20 4 L 8 4 L 8 6 L 20 6 L 20 4 Z" fill="currentColor" fill-rule="nonzero"></path>
  <path d="M 8 8 L 20 8 L 20 10 L 8 10 L 8 8 Z" fill="currentColor" fill-rule="nonzero"></path>
  <path d="M 20 12 L 8 12 L 8 14 L 20 14 L 20 12 Z" fill="currentColor" fill-rule="nonzero"></path>
  <path d="M 0 14 L 0 8 L 2 8 L 2 14 L 0 14 Z" fill="currentColor" fill-rule="nonzero"></path>
  <path d="M 4 14 L 4 8 L 6 8 L 6 14 L 4 14 Z" fill="currentColor" fill-rule="nonzero"></path>
</svg>