<svg xmlns="http://www.w3.org/2000/svg" width="18" height="20" viewBox="0 0 18 20" fill="none">
  <path d="M 18 20 L 16 20 L 16 14 L 14 14 L 14 16 L 12 16 L 12 18 L 10 18 L 10 20 L 8 20 L 8 18 L 6 18 L 6 16 L 4 16 L 4 14 L 2 14 L 2 12 L 16 12 L 16 10 L 18 10 L 18 20 Z" fill="currentColor" fill-rule="nonzero"></path>
  <path d="M 2 12 L 0 12 L 0 10 L 2 10 L 2 12 Z" fill="currentColor" fill-rule="nonzero"></path>
  <path d="M 4 10 L 2 10 L 2 8 L 4 8 L 4 10 Z" fill="currentColor" fill-rule="nonzero"></path>
  <path d="M 16 10 L 14 10 L 14 8 L 16 8 L 16 10 Z" fill="currentColor" fill-rule="nonzero"></path>
  <path d="M 6 8 L 4 8 L 4 6 L 6 6 L 6 8 Z" fill="currentColor" fill-rule="nonzero"></path>
  <path d="M 14 8 L 12 8 L 12 6 L 14 6 L 14 8 Z" fill="currentColor" fill-rule="nonzero"></path>
  <path d="M 8 6 L 6 6 L 6 4 L 8 4 L 8 6 Z" fill="currentColor" fill-rule="nonzero"></path>
  <path d="M 12 6 L 10 6 L 10 4 L 12 4 L 12 6 Z" fill="currentColor" fill-rule="nonzero"></path>
  <path d="M 10 4 L 8 4 L 8 2 L 10 2 L 10 4 Z" fill="currentColor" fill-rule="nonzero"></path>
  <path d="M 8 2 L 6 2 L 6 0 L 8 0 L 8 2 Z" fill="currentColor" fill-rule="nonzero"></path>
</svg>