<svg xmlns="http://www.w3.org/2000/svg" width="22" height="22" viewBox="0 0 22 22" fill="none">
  <path d="M 14 2 L 14 0 L 6 0 L 6 2 L 14 2 Z" fill="currentColor" fill-rule="nonzero"></path>
  <path d="M 16 2 L 14 2 L 14 4 L 16 4 L 16 2 Z" fill="currentColor" fill-rule="nonzero"></path>
  <path d="M 6 2 L 4 2 L 4 6 L 6 6 L 6 2 Z" fill="currentColor" fill-rule="nonzero"></path>
  <path d="M 16 8 L 20 8 L 20 6 L 18 6 L 18 4 L 16 4 L 16 8 Z" fill="currentColor" fill-rule="nonzero"></path>
  <path d="M 16 8 L 14 8 L 14 10 L 16 10 L 16 8 Z" fill="currentColor" fill-rule="nonzero"></path>
  <path d="M 4 6 L 2 6 L 2 12 L 4 12 L 4 6 Z" fill="currentColor" fill-rule="nonzero"></path>
  <path d="M 8 10 L 8 12 L 14 12 L 14 10 L 8 10 Z" fill="currentColor" fill-rule="nonzero"></path>
  <path d="M 20 8 L 20 12 L 22 12 L 22 8 L 20 8 Z" fill="currentColor" fill-rule="nonzero"></path>
  <path d="M 6 16 L 8 16 L 8 12 L 6 12 L 6 16 Z" fill="currentColor" fill-rule="nonzero"></path>
  <path d="M 20 12 L 18 12 L 18 14 L 20 14 L 20 12 Z" fill="currentColor" fill-rule="nonzero"></path>
  <path d="M 12 14 L 12 16 L 18 16 L 18 14 L 12 14 Z" fill="currentColor" fill-rule="nonzero"></path>
  <path d="M 10 20 L 12 20 L 12 16 L 10 16 L 10 20 Z" fill="currentColor" fill-rule="nonzero"></path>
  <path d="M 6 20 L 6 16 L 2 16 L 2 12 L 0 12 L 0 18 L 4 18 L 4 22 L 10 22 L 10 20 L 6 20 Z" fill="currentColor" fill-rule="nonzero"></path>
</svg>