<svg xmlns="http://www.w3.org/2000/svg" width="20" height="20" viewBox="0 0 20 20" fill="none">
  <path d="M 2 18 L 6 18 L 6 20 L 0 20 L 0 14 L 2 14 L 2 18 Z M 8 18 L 6 18 L 6 16 L 8 16 L 8 18 Z M 6 16 L 4 16 L 4 14 L 6 14 L 6 16 Z M 10 16 L 8 16 L 8 14 L 10 14 L 10 16 Z M 4 14 L 2 14 L 2 12 L 4 12 L 4 14 Z M 12 14 L 10 14 L 10 12 L 12 12 L 12 14 Z M 6 12 L 4 12 L 4 10 L 6 10 L 6 12 Z M 14 12 L 12 12 L 12 10 L 14 10 L 14 12 Z M 8 10 L 6 10 L 6 8 L 8 8 L 8 10 Z M 16 10 L 14 10 L 14 8 L 16 8 L 16 10 Z M 10 8 L 8 8 L 8 6 L 10 6 L 10 8 Z M 16 2 L 18 2 L 18 4 L 20 4 L 20 6 L 18 6 L 18 8 L 16 8 L 16 6 L 14 6 L 14 4 L 12 4 L 12 2 L 14 2 L 14 0 L 16 0 L 16 2 Z M 12 6 L 10 6 L 10 4 L 12 4 L 12 6 Z" fill="currentColor" fill-rule="nonzero"></path>
</svg>