<svg xmlns="http://www.w3.org/2000/svg" width="20" height="20" viewBox="0 0 20 20" fill="none">
  <path d="M 8 20 L 6 20 L 6 18 L 8 18 L 8 20 Z" fill="currentColor" fill-rule="nonzero"></path>
  <path d="M 6 14 L 18 14 L 18 16 L 6 16 L 6 18 L 4 18 L 4 16 L 2 16 L 2 14 L 4 14 L 4 12 L 6 12 L 6 14 Z" fill="currentColor" fill-rule="nonzero"></path>
  <path d="M 20 14 L 18 14 L 18 9 L 20 9 L 20 14 Z" fill="currentColor" fill-rule="nonzero"></path>
  <path d="M 8 12 L 6 12 L 6 10 L 8 10 L 8 12 Z" fill="currentColor" fill-rule="nonzero"></path>
  <path d="M 2 11 L 0 11 L 0 6 L 2 6 L 2 11 Z" fill="currentColor" fill-rule="nonzero"></path>
  <path d="M 14 10 L 12 10 L 12 8 L 14 8 L 14 10 Z" fill="currentColor" fill-rule="nonzero"></path>
  <path d="M 16 4 L 18 4 L 18 6 L 16 6 L 16 8 L 14 8 L 14 6 L 2 6 L 2 4 L 14 4 L 14 2 L 16 2 L 16 4 Z" fill="currentColor" fill-rule="nonzero"></path>
  <path d="M 14 2 L 12 2 L 12 0 L 14 0 L 14 2 Z" fill="currentColor" fill-rule="nonzero"></path>
</svg>