<svg xmlns="http://www.w3.org/2000/svg" width="18" height="22" viewBox="0 0 18 22" fill="none">
  <path d="M 12 22 L 10 22 L 10 20 L 12 20 L 12 22 Z" fill="currentColor" fill-rule="nonzero"></path>
  <path d="M 10 16 L 16 16 L 16 18 L 10 18 L 10 20 L 8 20 L 8 18 L 6 18 L 6 16 L 8 16 L 8 14 L 10 14 L 10 16 Z" fill="currentColor" fill-rule="nonzero"></path>
  <path d="M 4 18 L 2 18 L 2 16 L 4 16 L 4 18 Z" fill="currentColor" fill-rule="nonzero"></path>
  <path d="M 2 16 L 0 16 L 0 6 L 2 6 L 2 16 Z" fill="currentColor" fill-rule="nonzero"></path>
  <path d="M 18 6 L 18 16 L 16 16 L 16 6 L 18 6 Z" fill="currentColor" fill-rule="nonzero"></path>
  <path d="M 12 14 L 10 14 L 10 12 L 12 12 L 12 14 Z" fill="currentColor" fill-rule="nonzero"></path>
  <path d="M 8 10 L 6 10 L 6 8 L 8 8 L 8 10 Z" fill="currentColor" fill-rule="nonzero"></path>
  <path d="M 10 4 L 12 4 L 12 6 L 10 6 L 10 8 L 8 8 L 8 6 L 2 6 L 2 4 L 8 4 L 8 2 L 10 2 L 10 4 Z" fill="currentColor" fill-rule="nonzero"></path>
  <path d="M 16 6 L 14 6 L 14 4 L 16 4 L 16 6 Z" fill="currentColor" fill-rule="nonzero"></path>
  <path d="M 8 2 L 6 2 L 6 0 L 8 0 L 8 2 Z" fill="currentColor" fill-rule="nonzero"></path>
</svg>