<svg xmlns="http://www.w3.org/2000/svg" width="20" height="16" viewBox="0 0 20 16" fill="none">
  <path d="M 6 2 L 8 2 L 8 4 L 6 4 L 6 16 L 4 16 L 4 4 L 2 4 L 2 6 L 0 6 L 0 4 L 2 4 L 2 2 L 4 2 L 4 0 L 6 0 L 6 2 Z" fill="currentColor" fill-rule="nonzero"></path>
  <path d="M 16 12 L 18 12 L 18 14 L 16 14 L 16 16 L 14 16 L 14 14 L 12 14 L 12 12 L 14 12 L 14 0 L 16 0 L 16 12 Z" fill="currentColor" fill-rule="nonzero"></path>
  <path d="M 12 12 L 10 12 L 10 10 L 12 10 L 12 12 Z" fill="currentColor" fill-rule="nonzero"></path>
  <path d="M 20 12 L 18 12 L 18 10 L 20 10 L 20 12 Z" fill="currentColor" fill-rule="nonzero"></path>
  <path d="M 10 4 L 10 6 L 8 6 L 8 4 L 10 4 Z" fill="currentColor" fill-rule="nonzero"></path>
</svg>