<svg xmlns="http://www.w3.org/2000/svg" width="22" height="22" viewBox="0 0 22 22" fill="none">
  <path d="M 4 16 L 2 16 L 2 20 L 4 20 L 4 16 Z" fill="currentColor" fill-rule="nonzero"></path>
  <path d="M 8 16 L 8 18 L 14 18 L 14 16 L 8 16 Z" fill="currentColor" fill-rule="nonzero"></path>
  <path d="M 8 18 L 6 18 L 6 20 L 8 20 L 8 18 Z" fill="currentColor" fill-rule="nonzero"></path>
  <path d="M 16 18 L 14 18 L 14 20 L 16 20 L 16 18 Z" fill="currentColor" fill-rule="nonzero"></path>
  <path d="M 18 20 L 20 20 L 20 16 L 18 16 L 18 20 Z" fill="currentColor" fill-rule="nonzero"></path>
  <path d="M 6 20 L 4 20 L 4 22 L 6 22 L 6 20 Z" fill="currentColor" fill-rule="nonzero"></path>
  <path d="M 18 20 L 16 20 L 16 22 L 18 22 L 18 20 Z" fill="currentColor" fill-rule="nonzero"></path>
  <path d="M 12 0 L 10 0 L 10 2 L 12 2 L 12 0 Z" fill="currentColor" fill-rule="nonzero"></path>
  <path d="M 10 2 L 8 2 L 8 4 L 10 4 L 10 2 Z" fill="currentColor" fill-rule="nonzero"></path>
  <path d="M 14 2 L 12 2 L 12 4 L 14 4 L 14 2 Z" fill="currentColor" fill-rule="nonzero"></path>
  <path d="M 8 8 L 8 4 L 6 4 L 6 6 L 2 6 L 2 8 L 8 8 Z" fill="currentColor" fill-rule="nonzero"></path>
  <path d="M 14 8 L 20 8 L 20 6 L 16 6 L 16 4 L 14 4 L 14 8 Z" fill="currentColor" fill-rule="nonzero"></path>
  <path d="M 2 8 L 0 8 L 0 10 L 2 10 L 2 8 Z" fill="currentColor" fill-rule="nonzero"></path>
  <path d="M 22 8 L 20 8 L 20 10 L 22 10 L 22 8 Z" fill="currentColor" fill-rule="nonzero"></path>
  <path d="M 4 10 L 2 10 L 2 12 L 4 12 L 4 10 Z" fill="currentColor" fill-rule="nonzero"></path>
  <path d="M 20 10 L 18 10 L 18 12 L 20 12 L 20 10 Z" fill="currentColor" fill-rule="nonzero"></path>
  <path d="M 16 16 L 18 16 L 18 12 L 16 12 L 16 16 Z" fill="currentColor" fill-rule="nonzero"></path>
  <path d="M 6 12 L 4 12 L 4 16 L 6 16 L 6 12 Z" fill="currentColor" fill-rule="nonzero"></path>
</svg>