<svg xmlns="http://www.w3.org/2000/svg" width="18" height="18" viewBox="0 0 18 18" fill="none">
  <path d="M 5.143 0 L 7.714 0 L 7.714 2.571 L 5.143 2.571 L 5.143 0 Z" fill="currentColor" fill-rule="nonzero"></path>
  <path d="M 2.571 2.571 L 5.143 2.571 L 5.143 5.143 L 2.571 5.143 L 2.571 2.571 Z" fill="currentColor" fill-rule="nonzero"></path>
  <path d="M 15.429 2.571 L 12.857 2.571 L 12.857 5.143 L 15.429 5.143 L 15.429 2.571 Z" fill="currentColor" fill-rule="nonzero"></path>
  <path d="M 12.857 12.857 L 15.429 12.857 L 15.429 15.429 L 12.857 15.429 L 12.857 12.857 Z" fill="currentColor" fill-rule="nonzero"></path>
  <path d="M 10.286 15.429 L 5.143 15.429 L 5.143 18 L 10.286 18 L 10.286 15.429 Z" fill="currentColor" fill-rule="nonzero"></path>
  <path d="M 12.857 15.429 L 10.286 15.429 L 10.286 18 L 12.857 18 L 12.857 15.429 Z" fill="currentColor" fill-rule="nonzero"></path>
  <path d="M 7.714 5.143 L 5.143 5.143 L 5.143 7.714 L 7.714 7.714 L 7.714 5.143 Z" fill="currentColor" fill-rule="nonzero"></path>
  <path d="M 7.714 7.714 L 10.286 7.714 L 10.286 10.286 L 12.857 10.286 L 12.857 12.857 L 10.286 12.857 L 10.286 10.286 L 7.714 10.286 L 7.714 7.714 Z" fill="currentColor" fill-rule="nonzero"></path>
  <path d="M 7.714 0 L 7.714 2.571 L 12.857 2.571 L 12.857 0 L 7.714 0 Z" fill="currentColor" fill-rule="nonzero"></path>
  <path d="M 5.143 12.857 L 2.571 12.857 L 2.571 15.429 L 5.143 15.429 L 5.143 12.857 Z" fill="currentColor" fill-rule="nonzero"></path>
  <path d="M 0 5.143 L 2.571 5.143 L 2.571 12.857 L 0 12.857 L 0 5.143 Z" fill="currentColor" fill-rule="nonzero"></path>
  <path d="M 18 5.143 L 15.429 5.143 L 15.429 12.857 L 18 12.857 L 18 5.143 Z" fill="currentColor" fill-rule="nonzero"></path>
</svg>