<svg xmlns="http://www.w3.org/2000/svg" width="20" height="20" viewBox="0 0 20 20" fill="none">
  <path d="M 14 2 L 14 0 L 6 0 L 6 2 L 14 2 Z" fill="currentColor" fill-rule="nonzero"></path>
  <path d="M 16 2 L 14 2 L 14 4 L 16 4 L 16 2 Z" fill="currentColor" fill-rule="nonzero"></path>
  <path d="M 6 8 L 6 2 L 4 2 L 4 8 L 0 8 L 0 10 L 10 10 L 10 12 L 14 12 L 14 10 L 20 10 L 20 8 L 6 8 Z" fill="currentColor" fill-rule="nonzero"></path>
  <path d="M 6 14 L 4 14 L 4 18 L 6 18 L 6 14 Z" fill="currentColor" fill-rule="nonzero"></path>
  <path d="M 14 18 L 16 18 L 16 12 L 14 12 L 14 18 Z" fill="currentColor" fill-rule="nonzero"></path>
  <path d="M 6 18 L 6 20 L 14 20 L 14 18 L 6 18 Z" fill="currentColor" fill-rule="nonzero"></path>
</svg>