<svg xmlns="http://www.w3.org/2000/svg" width="22" height="22" viewBox="0 0 22 22" fill="none">
  <path d="M 20 2 L 20 0 L 2 0 L 2 2 L 20 2 Z" fill="currentColor" fill-rule="nonzero"></path>
  <path d="M 20 2 L 20 8 L 18 8 L 18 6 L 16 6 L 16 4 L 12 4 L 12 16 L 8 16 L 8 12 L 10 12 L 10 10 L 6 10 L 6 12 L 4 12 L 4 18 L 6 18 L 6 20 L 2 20 L 2 22 L 20 22 L 20 20 L 14 20 L 14 18 L 16 18 L 16 10 L 20 10 L 20 20 L 22 20 L 22 2 L 20 2 Z" fill="currentColor" fill-rule="nonzero"></path>
  <path d="M 2 2 L 0 2 L 0 20 L 2 20 L 2 2 Z" fill="currentColor" fill-rule="nonzero"></path>
  <path d="M 20 2 L 20 0 L 2 0 L 2 2 L 20 2 Z" fill="currentColor" fill-rule="nonzero"></path>
  <path d="M 20 2 L 20 8 L 18 8 L 18 6 L 16 6 L 16 4 L 12 4 L 12 16 L 8 16 L 8 12 L 10 12 L 10 10 L 6 10 L 6 12 L 4 12 L 4 18 L 6 18 L 6 20 L 2 20 L 2 22 L 20 22 L 20 20 L 14 20 L 14 18 L 16 18 L 16 10 L 20 10 L 20 20 L 22 20 L 22 2 L 20 2 Z" fill="currentColor" fill-rule="nonzero"></path>
  <path d="M 2 2 L 0 2 L 0 20 L 2 20 L 2 2 Z" fill="currentColor" fill-rule="nonzero"></path>
</svg>