<svg xmlns="http://www.w3.org/2000/svg" width="16" height="20" viewBox="0 0 16 20" fill="none">
  <path d="M 14 0 L 14 12 L 16 12 L 16 0 L 14 0 Z" fill="currentColor" fill-rule="nonzero"></path>
  <path d="M 2 0 L 0 0 L 0 12 L 2 12 L 2 0 Z" fill="currentColor" fill-rule="nonzero"></path>
  <path d="M 4 12 L 2 12 L 2 14 L 4 14 L 4 12 Z" fill="currentColor" fill-rule="nonzero"></path>
  <path d="M 14 12 L 12 12 L 12 14 L 14 14 L 14 12 Z" fill="currentColor" fill-rule="nonzero"></path>
  <path d="M 4 14 L 4 16 L 12 16 L 12 14 L 4 14 Z" fill="currentColor" fill-rule="nonzero"></path>
  <path d="M 0 18 L 0 20 L 16 20 L 16 18 L 0 18 Z" fill="currentColor" fill-rule="nonzero"></path>
</svg>