<svg xmlns="http://www.w3.org/2000/svg" width="16.000" height="20" viewBox="0 0 16.000 20" fill="none">
  <path d="M 11 0 L 5 0 L 5 2 L 11 2 L 11 0 Z" fill="currentColor" fill-rule="nonzero"></path>
  <path d="M 5 8 L 3 8 L 3 2 L 5 2 L 5 8 L 11 7.999 L 11 9.999 L 5 9.999 L 5 8 Z" fill="currentColor" fill-rule="nonzero"></path>
  <path d="M 11 2 L 13 2 L 13 8 L 11 7.999 L 11 2 Z" fill="currentColor" fill-rule="nonzero"></path>
  <path d="M 0 14 L 2 14 L 2 17.998 L 14 17.998 L 14 14 L 16 14 L 16 20 L 14 20 L 14 19.998 L 2 19.998 L 2 20 L 0 20 L 0 14 Z" fill="currentColor" fill-rule="nonzero"></path>
  <path d="M 2 12 L 14 12 L 14 14 L 2 14 L 2 12 Z" fill="currentColor" fill-rule="nonzero"></path>
</svg>