<svg xmlns="http://www.w3.org/2000/svg" width="22" height="18" viewBox="0 0 22 18" fill="none">
  <path d="M 14 2 L 14 0 L 2 0 L 2 2 L 14 2 Z" fill="currentColor" fill-rule="nonzero"></path>
  <path d="M 20 2 L 20 0 L 18 0 L 18 2 L 16 2 L 16 4 L 18 4 L 18 6 L 20 6 L 20 4 L 22 4 L 22 2 L 20 2 Z" fill="currentColor" fill-rule="nonzero"></path>
  <path d="M 8 4 L 8 14 L 10 14 L 10 12 L 12 12 L 12 10 L 14 10 L 14 8 L 12 8 L 12 6 L 10 6 L 10 4 L 8 4 Z" fill="currentColor" fill-rule="nonzero"></path>
  <path d="M 20 16 L 22 16 L 22 8 L 20 8 L 20 16 Z" fill="currentColor" fill-rule="nonzero"></path>
  <path d="M 2 2 L 0 2 L 0 16 L 2 16 L 2 2 Z" fill="currentColor" fill-rule="nonzero"></path>
  <path d="M 2 16 L 2 18 L 20 18 L 20 16 L 2 16 Z" fill="currentColor" fill-rule="nonzero"></path>
</svg>