<svg xmlns="http://www.w3.org/2000/svg" width="18" height="20" viewBox="0 0 18 20" fill="none">
  <path d="M 10 20 L 8 20 L 8 18 L 6 18 L 6 16 L 8 16 L 8 4 L 6 4 L 6 2 L 8 2 L 8 0 L 10 0 L 10 20 Z" fill="currentColor" fill-rule="nonzero"></path>
  <path d="M 6 16 L 4 16 L 4 14 L 6 14 L 6 16 Z" fill="currentColor" fill-rule="nonzero"></path>
  <path d="M 4 8 L 2 8 L 2 12 L 4 12 L 4 14 L 0 14 L 0 6 L 4 6 L 4 8 Z" fill="currentColor" fill-rule="nonzero"></path>
  <path d="M 14.001 13.224 L 12.001 13.224 L 12.001 11.224 L 14 11.224 L 14 9.224 L 12.001 9.224 L 12.001 7.224 L 14.001 7.224 L 14 9.224 L 16 9.224 L 16 11.224 L 14 11.224 L 14.001 13.224 Z" fill="currentColor" fill-rule="nonzero"></path>
  <path d="M 18 13.224 L 16 13.224 L 16 11.224 L 18 11.224 L 18 13.224 Z" fill="currentColor" fill-rule="nonzero"></path>
  <path d="M 18 9.224 L 16 9.224 L 16 7.224 L 18 7.224 L 18 9.224 Z" fill="currentColor" fill-rule="nonzero"></path>
  <path d="M 6 6 L 4 6 L 4 4 L 6 4 L 6 6 Z" fill="currentColor" fill-rule="nonzero"></path>
</svg>