<svg xmlns="http://www.w3.org/2000/svg" width="18" height="20" viewBox="0 0 18 20" fill="none">
  <path d="M 10 20 L 8 20 L 8 18 L 6 18 L 6 16 L 8 16 L 8 4 L 6 4 L 6 2 L 8 2 L 8 0 L 10 0 L 10 20 Z" fill="currentColor" fill-rule="nonzero"></path>
  <path d="M 6 16 L 4 16 L 4 14 L 6 14 L 6 16 Z" fill="currentColor" fill-rule="nonzero"></path>
  <path d="M 16 16 L 12 16 L 12 14 L 16 14 L 16 16 Z" fill="currentColor" fill-rule="nonzero"></path>
  <path d="M 4 8 L 2 8 L 2 12 L 4 12 L 4 14 L 0 14 L 0 6 L 4 6 L 4 8 Z" fill="currentColor" fill-rule="nonzero"></path>
  <path d="M 18 14 L 16 14 L 16 6 L 18 6 L 18 14 Z" fill="currentColor" fill-rule="nonzero"></path>
  <path d="M 14 12 L 12 12 L 12 8 L 14 8 L 14 12 Z" fill="currentColor" fill-rule="nonzero"></path>
  <path d="M 6 6 L 4 6 L 4 4 L 6 4 L 6 6 Z" fill="currentColor" fill-rule="nonzero"></path>
  <path d="M 16 6 L 12 6 L 12 4 L 16 4 L 16 6 Z" fill="currentColor" fill-rule="nonzero"></path>
</svg>