<svg xmlns="http://www.w3.org/2000/svg" width="22" height="22" viewBox="0 0 22 22" fill="none">
  <path d="M 20 2 L 20 0 L 2 0 L 2 2 L 20 2 Z" fill="currentColor" fill-rule="nonzero"></path>
  <path d="M 20 2 L 20 16 L 22 16 L 22 2 L 20 2 Z" fill="currentColor" fill-rule="nonzero"></path>
  <path d="M 14 4 L 12 4 L 12 6 L 14 6 L 14 4 Z" fill="currentColor" fill-rule="nonzero"></path>
  <path d="M 12 6 L 10 6 L 10 8 L 12 8 L 12 6 Z" fill="currentColor" fill-rule="nonzero"></path>
  <path d="M 16 6 L 14 6 L 14 8 L 16 8 L 16 6 Z" fill="currentColor" fill-rule="nonzero"></path>
  <path d="M 10 8 L 8 8 L 8 10 L 10 10 L 10 8 Z" fill="currentColor" fill-rule="nonzero"></path>
  <path d="M 14 8 L 12 8 L 12 10 L 14 10 L 14 8 Z" fill="currentColor" fill-rule="nonzero"></path>
  <path d="M 8 10 L 6 10 L 6 14 L 10 14 L 10 12 L 8 12 L 8 10 Z" fill="currentColor" fill-rule="nonzero"></path>
  <path d="M 12 10 L 10 10 L 10 12 L 12 12 L 12 10 Z" fill="currentColor" fill-rule="nonzero"></path>
  <path d="M 2 2 L 0 2 L 0 16 L 2 16 L 2 2 Z" fill="currentColor" fill-rule="nonzero"></path>
  <path d="M 2 16 L 2 18 L 8 18 L 8 20 L 6 20 L 6 22 L 16 22 L 16 20 L 14 20 L 14 18 L 20 18 L 20 16 L 2 16 Z" fill="currentColor" fill-rule="nonzero"></path>
</svg>