<svg xmlns="http://www.w3.org/2000/svg" width="22" height="20" viewBox="0 0 22 20" fill="none">
  <path d="M 18 20 L 4 20 L 4 18 L 18 18 L 18 20 Z" fill="currentColor" fill-rule="nonzero"></path>
  <path d="M 4 18 L 2 18 L 2 16 L 4 16 L 4 18 Z" fill="currentColor" fill-rule="nonzero"></path>
  <path d="M 20 18 L 18 18 L 18 16 L 20 16 L 20 18 Z" fill="currentColor" fill-rule="nonzero"></path>
  <path d="M 2 16 L 0 16 L 0 4 L 2 4 L 2 16 Z" fill="currentColor" fill-rule="nonzero"></path>
  <path d="M 22 16 L 20 16 L 20 4 L 22 4 L 22 16 Z" fill="currentColor" fill-rule="nonzero"></path>
  <path d="M 11 7 L 13 7 L 13 9 L 15 9 L 15 11 L 13 11 L 13 13 L 11 13 L 11 15 L 9 15 L 9 5 L 11 5 L 11 7 Z" fill="currentColor" fill-rule="nonzero"></path>
  <path d="M 4 4 L 2 4 L 2 2 L 4 2 L 4 4 Z" fill="currentColor" fill-rule="nonzero"></path>
  <path d="M 20 4 L 18 4 L 18 2 L 20 2 L 20 4 Z" fill="currentColor" fill-rule="nonzero"></path>
  <path d="M 18 2 L 4 2 L 4 0 L 18 0 L 18 2 Z" fill="currentColor" fill-rule="nonzero"></path>
</svg>